<svg width="322" height="216" viewBox="0 0 322 216" fill="none" xmlns="http://www.w3.org/2000/svg">
<path d="M52.4115 93.2083L105.865 68.849L98.8333 93.2083L201.271 40.776L207.016 53.9948L85.7708 110.458L97.2083 79.6771L52.4115 93.2083Z" fill="#FF1616"/>
<path d="M93.8906 147.078H112.005V102.385L93.8906 110.823V147.078Z" fill="#CB6CE6"/>
<path d="M186.729 80.7344V147.078H204.844V63.9792L186.729 80.7344Z" fill="#FF1616"/>
<path d="M124.833 147.078H142.953V87.974L124.833 96.4115V147.078Z" fill="#FF66C4"/>
<path d="M155.781 147.078H173.901V73.5625L155.781 82V147.078Z" fill="#FF5757"/>
<path d="M227.302 38.0885H186.729V75.6146L227.302 38.0885Z" fill="#FF1616"/>
<path d="M20.4479 104.031L20.5729 104.021L20.4948 103.948L20.4479 104.031ZM18.0208 205.099C13.1094 204.516 14 204.547 13.4792 204.818C14.4062 205.521 15.4844 205.313 16.4635 205.464C16.9375 205.531 17.4635 205.625 18.0208 205.099ZM21.2604 209.833C20.0469 209.422 17.9583 209.813 16.5208 209.813C13.5312 209.813 12.7604 209.286 11.2083 209.734C14.2448 210.771 16.1042 210.307 21.2604 209.833ZM8.1302 211.151C8.0677 211.255 8.01041 211.359 7.94791 211.464C8.20832 211.615 8.45832 211.828 8.73957 211.917C10.4114 212.469 12.1302 212.786 13.8906 212.729C19.6458 212.557 27.7344 211.854 34.3073 210.682C34.5364 210.641 34.8073 210.521 34.6771 210.094C26.0417 210.672 16.5104 212.672 10.2187 211.448C9.52603 211.318 8.82291 211.25 8.1302 211.151ZM12.1302 106.865C11.8854 106.906 11.6198 106.99 11.7396 107.349C11.7917 107.385 11.8489 107.469 11.8854 107.464C21.1458 106.495 21.7552 106.568 22.6927 105.682L22.8333 105.693C15.7604 106.156 15.625 106.307 12.1302 106.865ZM24.3333 99.3177C25.9687 99.5052 27.625 99.4115 29.375 99.5313C29.125 100.823 29.7187 99.625 26.8281 105.115C25.6094 107.422 21.8073 108.568 19.4479 108.807C11.8125 109.589 11.7604 109.693 11.1823 110.135C10.7135 113.438 8.33332 180.026 8.73957 189.661C8.8177 191.609 9.2552 193.5 9.97916 195.328C10.625 196.958 11.7604 198.021 13.5052 198.313C19.8073 199.365 23.9687 198.531 35.7031 197.245C38.0156 197 40.3177 196.708 42.4531 195.651C44.6667 196.646 44.375 196.891 44.1458 198.484C43.8073 200.875 42.5417 202.792 41.3802 204.786C39.9375 207.276 39.9948 208.286 38.6302 208.974C38.9427 209.74 38.8542 210.385 38.4427 211.031C37.1979 212.948 34.5521 213.13 16.3958 214.771C7.07812 215.609 3.36978 212.578 1.48957 207.63C0.0572818 203.849 0.369782 201.443 0.515615 186.375C0.557282 182.563 2.29166 128.813 3.10416 115.703C3.17707 114.589 3.68749 110.005 4.40624 108.677C6.07291 105.599 5.35416 102.521 6.98437 99.9896C7.70832 98.8594 7.76041 95.5938 13.6042 94.1667C17.0052 93.3386 20.4948 93 23.9739 92.7813C26.026 92.6563 27.9375 93.2396 29.6719 94.3854C31.1406 95.349 30.8385 96.3125 30.5885 97.4167C30.2187 99.0365 29.9271 99.3073 28.3489 99.0677C26.9844 98.8594 25.6614 98.9844 24.3333 99.3177Z" fill="#CB6CE6"/>
<path d="M95.4567 163.633C95.4567 162.956 95.691 162.378 96.165 161.904C96.6337 161.435 97.2119 161.196 97.8942 161.196H119.123C119.8 161.196 120.384 161.425 120.873 161.883C121.332 162.373 121.561 162.956 121.561 163.633C121.561 164.316 121.321 164.894 120.852 165.363C120.379 165.837 119.8 166.071 119.123 166.071H110.998V180.842C110.842 182.3 110.04 183.092 108.582 183.217C107.899 183.217 107.311 182.993 106.811 182.55C106.311 182.092 106.061 181.524 106.061 180.842V166.071H97.8942C97.2119 166.071 96.6442 165.831 96.1858 165.342C95.6962 164.883 95.4567 164.316 95.4567 163.633Z" fill="#FF00FF"/>
<path d="M93.3432 165.006C93.3432 164.329 93.5776 163.751 94.0515 163.277C94.5203 162.808 95.0984 162.568 95.7807 162.568H117.01C117.687 162.568 118.27 162.798 118.76 163.256C119.218 163.745 119.447 164.329 119.447 165.006C119.447 165.688 119.208 166.266 118.739 166.735C118.265 167.209 117.687 167.443 117.01 167.443H108.885V182.214C108.729 183.673 107.927 184.464 106.468 184.589C105.786 184.589 105.197 184.365 104.697 183.923C104.197 183.464 103.947 182.897 103.947 182.214V167.443H95.7807C95.0984 167.443 94.5307 167.204 94.0724 166.714C93.5828 166.256 93.3432 165.688 93.3432 165.006Z" fill="#00FFFF"/>
<path d="M94.3999 164.32C94.3999 163.643 94.6343 163.064 95.1083 162.59C95.577 162.122 96.1552 161.882 96.8374 161.882H118.067C118.744 161.882 119.327 162.111 119.817 162.57C120.275 163.059 120.504 163.643 120.504 164.32C120.504 165.002 120.265 165.58 119.796 166.049C119.322 166.523 118.744 166.757 118.067 166.757H109.942V181.528C109.785 182.986 108.983 183.778 107.525 183.903C106.843 183.903 106.254 183.679 105.754 183.236C105.254 182.778 105.004 182.21 105.004 181.528V166.757H96.8374C96.1552 166.757 95.5874 166.518 95.1291 166.028C94.6395 165.57 94.3999 165.002 94.3999 164.32Z" fill="#FF1616"/>
<path d="M130.316 180.842C130.16 182.3 129.358 183.092 127.899 183.217C127.217 183.217 126.629 182.993 126.129 182.55C125.629 182.092 125.379 181.524 125.379 180.842V163.571C125.405 162.894 125.66 162.331 126.149 161.883C126.634 161.425 127.217 161.196 127.899 161.196H143.17C143.321 161.196 143.467 161.212 143.608 161.238H143.837C145.53 161.279 146.925 161.67 148.024 162.404C149.118 163.128 149.91 163.962 150.399 164.904C150.884 165.837 151.129 166.774 151.129 167.717C151.129 168.691 150.889 169.649 150.42 170.592C149.946 171.524 149.155 172.357 148.045 173.092C146.931 173.816 145.53 174.196 143.837 174.238H137.42C137.613 175.462 138.014 176.363 138.629 176.946C139.212 177.529 139.946 177.821 140.837 177.821H148.712C149.389 177.852 149.951 178.107 150.399 178.592C150.858 179.081 151.087 179.665 151.087 180.342C151.056 180.998 150.821 181.55 150.379 182.008C149.931 182.456 149.379 182.685 148.712 182.696H140.191C138.384 182.727 136.754 182.024 135.295 180.592C133.837 179.165 132.951 177.462 132.649 175.488C132.201 173.295 131.983 172.066 131.983 171.8C131.983 171.123 132.217 170.545 132.691 170.071C133.16 169.602 133.738 169.363 134.42 169.363H144.045C144.514 169.337 144.899 169.232 145.191 169.05C145.493 168.873 145.717 168.67 145.858 168.446C146.009 168.212 146.087 167.967 146.087 167.717C146.087 167.482 146.009 167.248 145.858 167.008C145.717 166.774 145.493 166.566 145.191 166.383C144.899 166.206 144.514 166.102 144.045 166.071H131.254C130.629 166.102 130.316 166.42 130.316 167.029V180.842Z" fill="#FF00FF"/>
<path d="M161.843 161.196H175.906C176.583 161.227 177.145 161.482 177.593 161.967C178.051 162.456 178.281 163.04 178.281 163.717C178.156 165.175 177.364 165.962 175.906 166.071H163.072C162.156 166.128 161.39 166.482 160.781 167.133C160.166 167.79 159.723 168.54 159.447 169.383C159.166 170.217 159.031 171.071 159.031 171.946C159.031 172.821 159.166 173.685 159.447 174.529C159.723 175.363 160.166 176.107 160.781 176.758C161.39 177.415 162.156 177.769 163.072 177.821H175.906C176.583 177.852 177.145 178.107 177.593 178.592C178.051 179.081 178.281 179.665 178.281 180.342C178.249 180.998 178.015 181.55 177.572 182.008C177.124 182.456 176.572 182.685 175.906 182.696H161.843C160.135 182.602 158.723 181.956 157.614 180.758C156.515 179.55 155.729 178.185 155.26 176.654C154.786 175.128 154.551 173.56 154.551 171.946C154.551 170.352 154.791 168.79 155.281 167.258C155.765 165.717 156.551 164.352 157.635 163.154C158.729 161.946 160.135 161.295 161.843 161.196ZM178.218 171.8C178.218 172.482 177.973 173.05 177.489 173.508C177.015 173.998 176.437 174.238 175.76 174.238H164.76C164.078 174.238 163.499 174.003 163.031 173.529C162.557 173.06 162.322 172.482 162.322 171.8C162.322 171.123 162.551 170.54 163.01 170.05C163.494 169.592 164.078 169.363 164.76 169.363H175.76C176.437 169.363 177.015 169.602 177.489 170.071C177.973 170.545 178.218 171.123 178.218 171.8Z" fill="#FF00FF"/>
<path d="M190.23 166.071C189.313 166.128 188.543 166.482 187.918 167.133C187.303 167.79 186.86 168.54 186.584 169.383C186.319 170.217 186.188 171.071 186.188 171.946C186.188 172.821 186.313 173.691 186.563 174.55C186.824 175.399 187.272 176.144 187.897 176.779C188.532 177.42 189.313 177.769 190.23 177.821H202.272C203.798 177.962 204.636 178.8 204.793 180.342C204.761 181.024 204.506 181.587 204.022 182.029C203.532 182.477 202.949 182.696 202.272 182.696H188.959C187.261 182.602 185.865 181.956 184.772 180.758C183.673 179.55 182.886 178.185 182.418 176.654C181.944 175.128 181.709 173.56 181.709 171.946C181.709 170.753 181.839 169.571 182.105 168.404C182.365 167.238 182.782 166.128 183.355 165.071C183.938 164.019 184.709 163.113 185.668 162.363C186.626 161.613 187.72 161.227 188.959 161.196H202.272C203.798 161.337 204.636 162.175 204.793 163.717C204.793 164.399 204.543 164.962 204.043 165.404C203.543 165.852 202.949 166.071 202.272 166.071H190.23Z" fill="#FF00FF"/>
<path d="M128.203 182.214C128.046 183.673 127.244 184.464 125.786 184.589C125.104 184.589 124.515 184.365 124.015 183.923C123.515 183.464 123.265 182.897 123.265 182.214V164.943C123.291 164.266 123.546 163.704 124.036 163.256C124.52 162.798 125.104 162.568 125.786 162.568H141.057C141.208 162.568 141.354 162.584 141.494 162.61H141.723C143.416 162.652 144.812 163.042 145.911 163.777C147.005 164.501 147.796 165.334 148.286 166.277C148.77 167.209 149.015 168.147 149.015 169.089C149.015 170.063 148.776 171.022 148.307 171.964C147.833 172.897 147.041 173.73 145.932 174.464C144.817 175.188 143.416 175.568 141.723 175.61H135.307C135.499 176.834 135.901 177.735 136.515 178.318C137.098 178.902 137.833 179.193 138.723 179.193H146.598C147.276 179.225 147.838 179.48 148.286 179.964C148.744 180.454 148.973 181.037 148.973 181.714C148.942 182.37 148.708 182.923 148.265 183.381C147.817 183.829 147.265 184.058 146.598 184.068H138.078C136.27 184.1 134.64 183.397 133.182 181.964C131.723 180.537 130.838 178.834 130.536 176.86C130.088 174.667 129.869 173.438 129.869 173.173C129.869 172.495 130.104 171.917 130.578 171.443C131.046 170.975 131.624 170.735 132.307 170.735H141.932C142.401 170.709 142.786 170.605 143.078 170.423C143.38 170.245 143.604 170.042 143.744 169.818C143.895 169.584 143.973 169.339 143.973 169.089C143.973 168.855 143.895 168.62 143.744 168.381C143.604 168.147 143.38 167.938 143.078 167.756C142.786 167.579 142.401 167.475 141.932 167.443H129.14C128.515 167.475 128.203 167.792 128.203 168.402V182.214Z" fill="#00FFFF"/>
<path d="M159.73 162.568H173.792C174.469 162.6 175.032 162.855 175.48 163.339C175.938 163.829 176.167 164.412 176.167 165.089C176.042 166.548 175.251 167.334 173.792 167.443H160.959C160.042 167.501 159.277 167.855 158.667 168.506C158.053 169.162 157.61 169.912 157.334 170.756C157.053 171.589 156.917 172.443 156.917 173.318C156.917 174.193 157.053 175.058 157.334 175.902C157.61 176.735 158.053 177.48 158.667 178.131C159.277 178.787 160.042 179.141 160.959 179.193H173.792C174.469 179.225 175.032 179.48 175.48 179.964C175.938 180.454 176.167 181.037 176.167 181.714C176.136 182.37 175.902 182.923 175.459 183.381C175.011 183.829 174.459 184.058 173.792 184.068H159.73C158.021 183.975 156.61 183.329 155.501 182.131C154.402 180.923 153.615 179.558 153.146 178.027C152.672 176.501 152.438 174.933 152.438 173.318C152.438 171.725 152.678 170.162 153.167 168.631C153.652 167.089 154.438 165.725 155.521 164.527C156.615 163.318 158.021 162.667 159.73 162.568ZM176.105 173.173C176.105 173.855 175.86 174.423 175.376 174.881C174.902 175.37 174.323 175.61 173.646 175.61H162.646C161.964 175.61 161.386 175.376 160.917 174.902C160.443 174.433 160.209 173.855 160.209 173.173C160.209 172.495 160.438 171.912 160.896 171.423C161.381 170.964 161.964 170.735 162.646 170.735H173.646C174.323 170.735 174.902 170.975 175.376 171.443C175.86 171.917 176.105 172.495 176.105 173.173Z" fill="#00FFFF"/>
<path d="M188.117 167.443C187.2 167.501 186.429 167.855 185.804 168.506C185.189 169.162 184.747 169.912 184.471 170.756C184.205 171.589 184.075 172.443 184.075 173.318C184.075 174.193 184.2 175.063 184.45 175.923C184.71 176.772 185.158 177.516 185.783 178.152C186.419 178.792 187.2 179.141 188.117 179.193H200.158C201.684 179.334 202.523 180.173 202.679 181.714C202.648 182.397 202.393 182.959 201.908 183.402C201.419 183.85 200.835 184.068 200.158 184.068H186.846C185.148 183.975 183.752 183.329 182.658 182.131C181.559 180.923 180.773 179.558 180.304 178.027C179.83 176.501 179.596 174.933 179.596 173.318C179.596 172.126 179.726 170.943 179.992 169.777C180.252 168.61 180.669 167.501 181.242 166.443C181.825 165.391 182.596 164.485 183.554 163.735C184.512 162.985 185.606 162.6 186.846 162.568H200.158C201.684 162.709 202.523 163.548 202.679 165.089C202.679 165.772 202.429 166.334 201.929 166.777C201.429 167.225 200.835 167.443 200.158 167.443H188.117Z" fill="#00FFFF"/>
<path d="M129.259 181.528C129.103 182.986 128.301 183.778 126.843 183.903C126.16 183.903 125.572 183.679 125.072 183.236C124.572 182.778 124.322 182.21 124.322 181.528V164.257C124.348 163.58 124.603 163.018 125.093 162.57C125.577 162.111 126.16 161.882 126.843 161.882H142.113C142.265 161.882 142.41 161.898 142.551 161.924H142.78C144.473 161.965 145.869 162.356 146.968 163.09C148.061 163.814 148.853 164.648 149.343 165.59C149.827 166.523 150.072 167.46 150.072 168.403C150.072 169.377 149.832 170.335 149.363 171.278C148.89 172.21 148.098 173.044 146.988 173.778C145.874 174.502 144.473 174.882 142.78 174.924H136.363C136.556 176.148 136.957 177.049 137.572 177.632C138.155 178.215 138.89 178.507 139.78 178.507H147.655C148.332 178.538 148.895 178.794 149.343 179.278C149.801 179.768 150.03 180.351 150.03 181.028C149.999 181.684 149.765 182.236 149.322 182.695C148.874 183.143 148.322 183.372 147.655 183.382H139.134C137.327 183.413 135.697 182.71 134.238 181.278C132.78 179.851 131.895 178.148 131.593 176.174C131.145 173.981 130.926 172.752 130.926 172.486C130.926 171.809 131.16 171.231 131.634 170.757C132.103 170.288 132.681 170.049 133.363 170.049H142.988C143.457 170.023 143.843 169.919 144.134 169.736C144.436 169.559 144.66 169.356 144.801 169.132C144.952 168.898 145.03 168.653 145.03 168.403C145.03 168.169 144.952 167.934 144.801 167.695C144.66 167.46 144.436 167.252 144.134 167.07C143.843 166.893 143.457 166.788 142.988 166.757H130.197C129.572 166.788 129.259 167.106 129.259 167.715V181.528Z" fill="white"/>
<path d="M160.786 161.882H174.849C175.526 161.913 176.089 162.169 176.536 162.653C176.995 163.143 177.224 163.726 177.224 164.403C177.099 165.861 176.307 166.648 174.849 166.757H162.016C161.099 166.814 160.333 167.169 159.724 167.82C159.109 168.476 158.667 169.226 158.391 170.07C158.109 170.903 157.974 171.757 157.974 172.632C157.974 173.507 158.109 174.372 158.391 175.215C158.667 176.049 159.109 176.794 159.724 177.445C160.333 178.101 161.099 178.455 162.016 178.507H174.849C175.526 178.538 176.089 178.794 176.536 179.278C176.995 179.768 177.224 180.351 177.224 181.028C177.193 181.684 176.958 182.236 176.516 182.695C176.068 183.143 175.516 183.372 174.849 183.382H160.786C159.078 183.288 157.667 182.643 156.557 181.445C155.458 180.236 154.672 178.872 154.203 177.34C153.729 175.814 153.495 174.247 153.495 172.632C153.495 171.038 153.734 169.476 154.224 167.945C154.708 166.403 155.495 165.038 156.578 163.84C157.672 162.632 159.078 161.981 160.786 161.882ZM177.161 172.486C177.161 173.169 176.917 173.736 176.432 174.195C175.958 174.684 175.38 174.924 174.703 174.924H163.703C163.021 174.924 162.443 174.689 161.974 174.215C161.5 173.747 161.266 173.169 161.266 172.486C161.266 171.809 161.495 171.226 161.953 170.736C162.437 170.278 163.021 170.049 163.703 170.049H174.703C175.38 170.049 175.958 170.288 176.432 170.757C176.917 171.231 177.161 171.809 177.161 172.486Z" fill="white"/>
<path d="M189.173 166.757C188.257 166.814 187.486 167.169 186.861 167.82C186.246 168.476 185.804 169.226 185.527 170.07C185.262 170.903 185.132 171.757 185.132 172.632C185.132 173.507 185.257 174.377 185.507 175.236C185.767 176.085 186.215 176.83 186.84 177.465C187.475 178.106 188.257 178.455 189.173 178.507H201.215C202.741 178.648 203.58 179.486 203.736 181.028C203.705 181.71 203.449 182.273 202.965 182.715C202.475 183.163 201.892 183.382 201.215 183.382H187.902C186.205 183.288 184.809 182.643 183.715 181.445C182.616 180.236 181.83 178.872 181.361 177.34C180.887 175.814 180.652 174.247 180.652 172.632C180.652 171.439 180.783 170.257 181.048 169.09C181.309 167.924 181.725 166.814 182.298 165.757C182.882 164.705 183.652 163.799 184.611 163.049C185.569 162.299 186.663 161.913 187.902 161.882H201.215C202.741 162.023 203.58 162.861 203.736 164.403C203.736 165.085 203.486 165.648 202.986 166.09C202.486 166.538 201.892 166.757 201.215 166.757H189.173Z" fill="white"/>
<path d="M61.3238 213.466C63.6935 213.466 64.8915 211.856 64.8915 210.268C64.8915 208.935 64.0529 207.617 62.3758 207.268C63.4279 206.908 64.0165 205.992 64.0165 205.086C64.0165 203.924 63.0529 202.763 60.8967 202.763H58.1623V213.466H61.3238ZM59.0165 207.122V203.31H60.7508C62.3758 203.31 63.1206 204.231 63.1206 205.164C63.1206 206.138 62.3081 207.122 60.829 207.122H59.0165ZM59.0165 212.95V207.653H61.1623C63.0529 207.653 63.9748 208.924 63.9748 210.226C63.9748 211.575 62.9748 212.95 61.0269 212.95H59.0165Z" fill="#CB6CE6"/>
<path d="M72.85 213.466V212.893H68.3865V207.617H71.7302V207.044H68.3865V203.351H72.85V202.778H67.5323V213.466H72.85Z" fill="#CB6CE6"/>
<path d="M74.6636 213.054C75.3406 213.455 76.1584 213.653 76.9552 213.653C79.5698 213.653 80.5438 211.711 80.5438 210.414C80.5438 208.481 78.9709 207.591 77.8198 206.992C76.4604 206.268 75.6896 205.815 75.6896 204.763C75.6896 203.924 76.3667 203.112 77.7677 203.112C78.3823 203.112 79.0334 203.268 79.5542 203.513L79.6896 202.966C79.1844 202.726 78.4761 202.565 77.7573 202.565C75.9448 202.565 74.8875 203.575 74.8875 204.872C74.8875 205.617 75.2625 206.377 76.0073 206.882C76.4604 207.19 76.9031 207.403 77.3406 207.643C78.3406 208.19 79.674 208.95 79.674 210.471C79.674 211.815 78.6479 213.013 76.8354 213.013C76.1427 213.013 75.4084 212.841 74.7834 212.481L74.6636 213.054Z" fill="#CB6CE6"/>
<path d="M84.0176 213.466V202.778H83.1946V213.466H84.0176Z" fill="#CB6CE6"/>
<path d="M91.1369 213.481C95.0953 213.481 97.1213 210.763 97.1213 208.07C97.1213 205.403 95.163 202.778 91.163 202.778C91.1265 202.778 91.1005 202.778 91.0588 202.778C91.0588 202.778 91.0588 202.778 87.2567 202.778V213.481H91.1369ZM88.1369 212.908V203.351H91.0171C94.5223 203.351 96.2046 205.669 96.2046 208.028C96.2046 210.455 94.4286 212.908 91.0432 212.908H88.1369Z" fill="#CB6CE6"/>
<path d="M105.119 213.466V212.893H100.655V207.617H103.999V207.044H100.655V203.351H105.119V202.778H99.8011V213.466H105.119Z" fill="#CB6CE6"/>
<path d="M116.011 213.481L115.995 207.721L119.714 202.778H118.943L115.729 207.138L112.568 202.778H111.625L115.182 207.747V213.481H116.011Z" fill="#CB6CE6"/>
<path d="M132.857 208.122C132.857 204.429 130.139 202.549 127.154 202.549C124.165 202.549 121.462 204.429 121.462 208.122C121.462 211.815 124.165 213.705 127.154 213.705C130.139 213.705 132.857 211.815 132.857 208.122ZM127.154 213.164C124.675 213.164 122.404 211.466 122.404 208.112C122.404 204.752 124.675 203.07 127.154 203.07C129.634 203.07 131.91 204.752 131.91 208.112C131.91 211.466 129.634 213.164 127.154 213.164Z" fill="#CB6CE6"/>
<path d="M143.148 209.351C143.148 211.789 141.465 213.002 139.773 213.002C138.069 213.002 136.351 211.763 136.351 209.351V202.778H135.496V209.497C135.496 212.268 137.59 213.679 139.679 213.679C141.746 213.679 143.814 212.294 143.814 209.497V202.778H143.148V209.351Z" fill="#CB6CE6"/>
<path d="M155.101 213.148C153.33 212.549 152.476 209.601 152.101 208.2C151.861 207.976 151.33 207.685 150.705 207.523C152.101 207.414 152.929 206.268 152.929 205.122C152.929 203.935 152.038 202.763 149.955 202.763H149.944C149.944 202.763 147.986 202.778 146.944 202.778V213.481H147.773V207.617H149.09C149.689 207.617 150.757 207.867 151.21 208.377C151.741 210.2 152.585 213.028 154.887 213.575L155.101 213.148ZM147.773 207.096V203.299H149.809C151.33 203.299 152.038 204.205 152.038 205.138C152.038 206.096 151.262 207.096 149.877 207.096H147.773Z" fill="#CB6CE6"/>
<path d="M169.178 213.466L173.245 202.763H172.589L169.006 212.268L167.537 208.018L169.376 202.763H168.725L167.219 207.096L165.725 202.778L164.86 202.763L166.818 208.268L165.443 212.226L161.87 202.778L160.995 202.763L165.11 213.466H165.631L167.136 209.164L168.672 213.466H169.178Z" fill="#CB6CE6"/>
<path d="M186.465 208.122C186.465 204.429 183.746 202.549 180.762 202.549C177.772 202.549 175.069 204.429 175.069 208.122C175.069 211.815 177.772 213.705 180.762 213.705C183.746 213.705 186.465 211.815 186.465 208.122ZM180.762 213.164C178.283 213.164 176.012 211.466 176.012 208.112C176.012 204.752 178.283 203.07 180.762 203.07C183.241 203.07 185.517 204.752 185.517 208.112C185.517 211.466 183.241 213.164 180.762 213.164Z" fill="#CB6CE6"/>
<path d="M197.312 213.148C195.541 212.549 194.687 209.601 194.312 208.2C194.073 207.976 193.541 207.685 192.916 207.523C194.312 207.414 195.14 206.268 195.14 205.122C195.14 203.935 194.25 202.763 192.166 202.763H192.156C192.156 202.763 190.198 202.778 189.156 202.778V213.481H189.984V207.617H191.302C191.901 207.617 192.969 207.867 193.422 208.377C193.953 210.2 194.797 213.028 197.099 213.575L197.312 213.148ZM189.984 207.096V203.299H192.021C193.541 203.299 194.25 204.205 194.25 205.138C194.25 206.096 193.474 207.096 192.088 207.096H189.984Z" fill="#CB6CE6"/>
<path d="M206.9 213.466L201.03 206.747L206.629 202.763L205.551 202.778L200.061 206.737C200.061 206.737 204.056 211.466 205.66 213.466H206.9ZM199.9 213.466V202.778H199.071V213.466H199.9Z" fill="#CB6CE6"/>
<path d="M220.053 208.122C220.053 204.429 217.334 202.549 214.35 202.549C211.36 202.549 208.657 204.429 208.657 208.122C208.657 211.815 211.36 213.705 214.35 213.705C217.334 213.705 220.053 211.815 220.053 208.122ZM214.35 213.164C211.871 213.164 209.6 211.466 209.6 208.112C209.6 204.752 211.871 203.07 214.35 203.07C216.829 203.07 219.105 204.752 219.105 208.112C219.105 211.466 216.829 213.164 214.35 213.164Z" fill="#CB6CE6"/>
<path d="M230.343 209.351C230.343 211.789 228.661 213.002 226.968 213.002C225.265 213.002 223.546 211.763 223.546 209.351V202.778H222.692V209.497C222.692 212.268 224.786 213.679 226.874 213.679C228.942 213.679 231.01 212.294 231.01 209.497V202.778H230.343V209.351Z" fill="#CB6CE6"/>
<path d="M237.39 213.466V203.351H240.457V202.763H233.473V203.351H236.525V213.466H237.39Z" fill="#CB6CE6"/>
<path d="M286.354 195.583L286.135 195.609L286.271 195.734L286.354 195.583ZM290.62 18.1042C299.24 19.125 297.672 19.0781 298.594 18.599C296.964 17.3698 295.073 17.7292 293.349 17.4688C292.521 17.3438 291.599 17.1823 290.62 18.1042ZM284.932 9.79167C287.062 10.5156 290.729 9.82813 293.25 9.82813C298.505 9.82813 299.849 10.75 302.578 9.95833C297.25 8.14063 293.984 8.95313 284.932 9.79167ZM307.984 7.47917C308.094 7.29688 308.193 7.10938 308.302 6.92708C307.839 6.66146 307.406 6.29167 306.911 6.13021C303.974 5.16146 300.953 4.60417 297.865 4.70833C287.766 5.01042 273.557 6.23959 262.021 8.30208C261.62 8.375 261.151 8.58854 261.375 9.33333C276.536 8.31771 293.271 4.80729 304.318 6.95313C305.531 7.1875 306.76 7.30729 307.984 7.47917ZM300.964 190.615C301.391 190.542 301.859 190.401 301.641 189.76C301.557 189.698 301.458 189.552 301.391 189.563C285.13 191.26 284.062 191.135 282.411 192.688L282.172 192.672C294.589 191.859 294.823 191.589 300.964 190.615ZM279.531 203.865C276.661 203.536 273.76 203.703 270.682 203.495C271.125 201.224 270.078 203.328 275.156 193.693C277.292 189.635 283.969 187.625 288.109 187.208C301.516 185.833 301.609 185.651 302.62 184.87C303.448 179.073 307.625 62.1354 306.911 45.2188C306.771 41.7917 306.01 38.474 304.734 35.2656C303.599 32.401 301.609 30.5313 298.547 30.0208C287.484 28.1771 280.177 29.6354 259.578 31.8958C255.51 32.3333 251.469 32.8438 247.719 34.6927C243.839 32.9531 244.349 32.5156 244.75 29.7188C245.344 25.5208 247.568 22.1615 249.604 18.6563C252.141 14.2865 252.036 12.5104 254.432 11.3021C253.885 9.95313 254.036 8.82292 254.766 7.69271C256.948 4.32292 261.594 4.00521 293.464 1.11979C309.823 -0.354166 316.344 4.96875 319.641 13.6667C322.156 20.3021 321.604 24.5208 321.344 50.9844C321.281 57.6771 318.234 152.073 316.802 175.089C316.677 177.052 315.781 185.094 314.516 187.432C311.589 192.839 312.854 198.24 309.99 202.693C308.719 204.667 308.625 210.406 298.37 212.911C292.401 214.37 286.276 214.964 280.161 215.344C276.562 215.568 273.208 214.536 270.161 212.526C267.583 210.833 268.109 209.141 268.557 207.208C269.198 204.359 269.719 203.891 272.49 204.307C274.88 204.677 277.198 204.453 279.531 203.865Z" fill="#FF1616"/>
<path d="M220.676 171.395C221.468 171.411 222.176 171.661 222.801 172.145C223.426 172.635 223.931 173.218 224.322 173.895C224.707 174.562 224.994 175.27 225.176 176.02C225.369 176.77 225.468 177.536 225.468 178.312C225.468 179.343 225.301 180.354 224.968 181.354C224.645 182.343 224.124 183.218 223.405 183.979C222.681 184.744 221.77 185.161 220.676 185.229H212.489C211.405 185.177 210.494 184.765 209.76 183.999C209.02 183.239 208.499 182.354 208.197 181.354C207.89 180.354 207.739 179.343 207.739 178.312C207.739 177.286 207.89 176.281 208.197 175.291C208.515 174.291 209.036 173.406 209.76 172.624C210.494 171.848 211.405 171.437 212.489 171.395H220.676ZM219.885 182.083C220.478 182.057 220.973 181.833 221.364 181.416C221.765 180.999 222.051 180.52 222.218 179.979C222.395 179.427 222.489 178.869 222.489 178.312C222.489 177.744 222.395 177.197 222.218 176.666C222.036 176.124 221.749 175.645 221.364 175.229C220.973 174.802 220.478 174.572 219.885 174.541H213.218C212.635 174.572 212.14 174.802 211.739 175.229C211.348 175.645 211.062 176.124 210.885 176.666C210.702 177.197 210.614 177.744 210.614 178.312C210.614 178.869 210.697 179.427 210.864 179.979C211.041 180.52 211.332 180.999 211.739 181.416C212.14 181.833 212.635 182.057 213.218 182.083H219.885Z" fill="#FF00FF"/>
<path d="M222.112 170.786C222.904 170.801 223.612 171.051 224.237 171.536C224.862 172.025 225.367 172.609 225.758 173.286C226.143 173.952 226.43 174.661 226.612 175.411C226.805 176.161 226.904 176.926 226.904 177.702C226.904 178.734 226.737 179.744 226.404 180.744C226.081 181.734 225.56 182.609 224.841 183.369C224.117 184.135 223.206 184.551 222.112 184.619H213.925C212.841 184.567 211.93 184.156 211.196 183.39C210.456 182.63 209.935 181.744 209.633 180.744C209.326 179.744 209.175 178.734 209.175 177.702C209.175 176.676 209.326 175.671 209.633 174.682C209.951 173.682 210.472 172.796 211.196 172.015C211.93 171.239 212.841 170.827 213.925 170.786H222.112ZM221.321 181.473C221.914 181.447 222.409 181.223 222.8 180.807C223.201 180.39 223.487 179.911 223.654 179.369C223.831 178.817 223.925 178.26 223.925 177.702C223.925 177.135 223.831 176.588 223.654 176.057C223.472 175.515 223.185 175.036 222.8 174.619C222.409 174.192 221.914 173.963 221.321 173.932H214.654C214.071 173.963 213.576 174.192 213.175 174.619C212.784 175.036 212.498 175.515 212.321 176.057C212.138 176.588 212.05 177.135 212.05 177.702C212.05 178.26 212.133 178.817 212.3 179.369C212.477 179.911 212.768 180.39 213.175 180.807C213.576 181.223 214.071 181.447 214.654 181.473H221.321Z" fill="#00FFFF"/>
<path d="M221.394 171.091C222.186 171.106 222.894 171.356 223.519 171.841C224.144 172.33 224.649 172.913 225.04 173.591C225.426 174.257 225.712 174.966 225.894 175.716C226.087 176.466 226.186 177.231 226.186 178.007C226.186 179.038 226.019 180.049 225.686 181.049C225.363 182.038 224.842 182.913 224.123 183.674C223.399 184.439 222.488 184.856 221.394 184.924H213.207C212.123 184.872 211.212 184.46 210.478 183.695C209.738 182.934 209.217 182.049 208.915 181.049C208.608 180.049 208.457 179.038 208.457 178.007C208.457 176.981 208.608 175.976 208.915 174.986C209.233 173.986 209.754 173.101 210.478 172.32C211.212 171.544 212.123 171.132 213.207 171.091H221.394ZM220.603 181.778C221.196 181.752 221.691 181.528 222.082 181.111C222.483 180.695 222.769 180.216 222.936 179.674C223.113 179.122 223.207 178.564 223.207 178.007C223.207 177.439 223.113 176.893 222.936 176.361C222.754 175.82 222.467 175.341 222.082 174.924C221.691 174.497 221.196 174.268 220.603 174.236H213.936C213.353 174.268 212.858 174.497 212.457 174.924C212.066 175.341 211.78 175.82 211.603 176.361C211.42 176.893 211.332 177.439 211.332 178.007C211.332 178.564 211.415 179.122 211.582 179.674C211.759 180.216 212.051 180.695 212.457 181.111C212.858 181.528 213.353 181.752 213.936 181.778H220.603Z" fill="white"/>
</svg>
