<svg xmlns="http://www.w3.org/2000/svg" xmlns:xlink="http://www.w3.org/1999/xlink" width="140" zoomAndPan="magnify" viewBox="0 0 104.88 30.000001" height="40" preserveAspectRatio="xMidYMid meet" version="1.0"><defs><g/></defs><g fill="#ff00ff" fill-opacity="1"><g transform="translate(5.86562, 22.545432)"><g><path d="M 1.046875 -12.5 C 1.046875 -12.945312 1.203125 -13.320312 1.515625 -13.625 C 1.828125 -13.9375 2.203125 -14.09375 2.640625 -14.09375 L 16.5 -14.09375 C 16.945312 -14.09375 17.332031 -13.941406 17.65625 -13.640625 C 17.957031 -13.328125 18.109375 -12.945312 18.109375 -12.5 C 18.109375 -12.0625 17.953125 -11.6875 17.640625 -11.375 C 17.328125 -11.0625 16.945312 -10.90625 16.5 -10.90625 L 11.1875 -10.90625 L 11.1875 -1.265625 C 11.09375 -0.304688 10.570312 0.207031 9.625 0.28125 C 9.175781 0.28125 8.789062 0.132812 8.46875 -0.15625 C 8.144531 -0.445312 7.984375 -0.816406 7.984375 -1.265625 L 7.984375 -10.90625 L 2.640625 -10.90625 C 2.203125 -10.90625 1.832031 -11.066406 1.53125 -11.390625 C 1.207031 -11.691406 1.046875 -12.0625 1.046875 -12.5 Z M 1.046875 -12.5 "/></g></g></g><g fill="#00ffff" fill-opacity="1"><g transform="translate(4.484784, 23.442158)"><g><path d="M 1.046875 -12.5 C 1.046875 -12.945312 1.203125 -13.320312 1.515625 -13.625 C 1.828125 -13.9375 2.203125 -14.09375 2.640625 -14.09375 L 16.5 -14.09375 C 16.945312 -14.09375 17.332031 -13.941406 17.65625 -13.640625 C 17.957031 -13.328125 18.109375 -12.945312 18.109375 -12.5 C 18.109375 -12.0625 17.953125 -11.6875 17.640625 -11.375 C 17.328125 -11.0625 16.945312 -10.90625 16.5 -10.90625 L 11.1875 -10.90625 L 11.1875 -1.265625 C 11.09375 -0.304688 10.570312 0.207031 9.625 0.28125 C 9.175781 0.28125 8.789062 0.132812 8.46875 -0.15625 C 8.144531 -0.445312 7.984375 -0.816406 7.984375 -1.265625 L 7.984375 -10.90625 L 2.640625 -10.90625 C 2.203125 -10.90625 1.832031 -11.066406 1.53125 -11.390625 C 1.207031 -11.691406 1.046875 -12.0625 1.046875 -12.5 Z M 1.046875 -12.5 "/></g></g></g><g fill="#ff1616" fill-opacity="1"><g transform="translate(5.175202, 22.993795)"><g><path d="M 1.046875 -12.5 C 1.046875 -12.945312 1.203125 -13.320312 1.515625 -13.625 C 1.828125 -13.9375 2.203125 -14.09375 2.640625 -14.09375 L 16.5 -14.09375 C 16.945312 -14.09375 17.332031 -13.941406 17.65625 -13.640625 C 17.957031 -13.328125 18.109375 -12.945312 18.109375 -12.5 C 18.109375 -12.0625 17.953125 -11.6875 17.640625 -11.375 C 17.328125 -11.0625 16.945312 -10.90625 16.5 -10.90625 L 11.1875 -10.90625 L 11.1875 -1.265625 C 11.09375 -0.304688 10.570312 0.207031 9.625 0.28125 C 9.175781 0.28125 8.789062 0.132812 8.46875 -0.15625 C 8.144531 -0.445312 7.984375 -0.816406 7.984375 -1.265625 L 7.984375 -10.90625 L 2.640625 -10.90625 C 2.203125 -10.90625 1.832031 -11.066406 1.53125 -11.390625 C 1.207031 -11.691406 1.046875 -12.0625 1.046875 -12.5 Z M 1.046875 -12.5 "/></g></g></g><g fill="#ff00ff" fill-opacity="1"><g transform="translate(24.961279, 22.545432)"><g><path d="M 4.71875 -1.265625 C 4.625 -0.304688 4.097656 0.207031 3.140625 0.28125 C 2.703125 0.28125 2.316406 0.132812 1.984375 -0.15625 C 1.660156 -0.445312 1.5 -0.816406 1.5 -1.265625 L 1.5 -12.546875 C 1.519531 -12.992188 1.6875 -13.363281 2 -13.65625 C 2.320312 -13.945312 2.703125 -14.09375 3.140625 -14.09375 L 13.125 -14.09375 C 13.21875 -14.09375 13.3125 -14.085938 13.40625 -14.078125 L 13.546875 -14.078125 C 14.660156 -14.046875 15.570312 -13.789062 16.28125 -13.3125 C 17 -12.832031 17.515625 -12.285156 17.828125 -11.671875 C 18.148438 -11.066406 18.3125 -10.457031 18.3125 -9.84375 C 18.3125 -9.207031 18.15625 -8.582031 17.84375 -7.96875 C 17.539062 -7.351562 17.023438 -6.804688 16.296875 -6.328125 C 15.578125 -5.859375 14.660156 -5.609375 13.546875 -5.578125 L 9.359375 -5.578125 C 9.484375 -4.773438 9.742188 -4.1875 10.140625 -3.8125 C 10.523438 -3.425781 11.007812 -3.234375 11.59375 -3.234375 L 16.75 -3.234375 C 17.1875 -3.222656 17.550781 -3.054688 17.84375 -2.734375 C 18.144531 -2.421875 18.296875 -2.039062 18.296875 -1.59375 C 18.273438 -1.164062 18.117188 -0.804688 17.828125 -0.515625 C 17.535156 -0.222656 17.175781 -0.0664062 16.75 -0.046875 L 11.171875 -0.046875 C 9.992188 -0.0351562 8.925781 -0.492188 7.96875 -1.421875 C 7.019531 -2.359375 6.441406 -3.472656 6.234375 -4.765625 C 5.953125 -6.191406 5.8125 -6.992188 5.8125 -7.171875 C 5.8125 -7.617188 5.960938 -7.992188 6.265625 -8.296875 C 6.578125 -8.609375 6.957031 -8.765625 7.40625 -8.765625 L 13.703125 -8.765625 C 14.003906 -8.785156 14.253906 -8.851562 14.453125 -8.96875 C 14.648438 -9.082031 14.796875 -9.210938 14.890625 -9.359375 C 14.984375 -9.515625 15.03125 -9.675781 15.03125 -9.84375 C 15.03125 -10 14.984375 -10.148438 14.890625 -10.296875 C 14.796875 -10.453125 14.648438 -10.585938 14.453125 -10.703125 C 14.253906 -10.828125 14.003906 -10.894531 13.703125 -10.90625 L 5.328125 -10.90625 C 4.921875 -10.894531 4.71875 -10.691406 4.71875 -10.296875 Z M 4.71875 -1.265625 "/></g></g></g><g fill="#ff00ff" fill-opacity="1"><g transform="translate(44.347219, 22.545432)"><g><path d="M 5.9375 -14.09375 L 15.125 -14.09375 C 15.570312 -14.082031 15.941406 -13.914062 16.234375 -13.59375 C 16.523438 -13.28125 16.671875 -12.898438 16.671875 -12.453125 C 16.585938 -11.503906 16.070312 -10.988281 15.125 -10.90625 L 6.734375 -10.90625 C 6.128906 -10.875 5.628906 -10.644531 5.234375 -10.21875 C 4.835938 -9.789062 4.546875 -9.300781 4.359375 -8.75 C 4.179688 -8.207031 4.09375 -7.648438 4.09375 -7.078125 C 4.09375 -6.503906 4.179688 -5.941406 4.359375 -5.390625 C 4.546875 -4.847656 4.835938 -4.359375 5.234375 -3.921875 C 5.628906 -3.492188 6.128906 -3.265625 6.734375 -3.234375 L 15.125 -3.234375 C 15.570312 -3.222656 15.941406 -3.054688 16.234375 -2.734375 C 16.523438 -2.421875 16.671875 -2.039062 16.671875 -1.59375 C 16.660156 -1.164062 16.503906 -0.804688 16.203125 -0.515625 C 15.910156 -0.222656 15.550781 -0.0664062 15.125 -0.046875 L 5.9375 -0.046875 C 4.820312 -0.109375 3.898438 -0.53125 3.171875 -1.3125 C 2.453125 -2.101562 1.9375 -3 1.625 -4 C 1.320312 -5 1.171875 -6.023438 1.171875 -7.078125 C 1.171875 -8.117188 1.328125 -9.140625 1.640625 -10.140625 C 1.960938 -11.140625 2.476562 -12.03125 3.1875 -12.8125 C 3.90625 -13.601562 4.820312 -14.03125 5.9375 -14.09375 Z M 16.625 -7.171875 C 16.625 -6.722656 16.46875 -6.347656 16.15625 -6.046875 C 15.851562 -5.734375 15.476562 -5.578125 15.03125 -5.578125 L 7.84375 -5.578125 C 7.394531 -5.578125 7.015625 -5.726562 6.703125 -6.03125 C 6.390625 -6.34375 6.234375 -6.722656 6.234375 -7.171875 C 6.234375 -7.617188 6.382812 -8 6.6875 -8.3125 C 7.007812 -8.613281 7.394531 -8.765625 7.84375 -8.765625 L 15.03125 -8.765625 C 15.476562 -8.765625 15.851562 -8.609375 16.15625 -8.296875 C 16.46875 -7.992188 16.625 -7.617188 16.625 -7.171875 Z M 16.625 -7.171875 "/></g></g></g><g fill="#ff00ff" fill-opacity="1"><g transform="translate(61.899353, 22.545432)"><g><path d="M 6.9375 -10.90625 C 6.332031 -10.875 5.828125 -10.644531 5.421875 -10.21875 C 5.015625 -9.789062 4.722656 -9.300781 4.546875 -8.75 C 4.367188 -8.207031 4.28125 -7.648438 4.28125 -7.078125 C 4.28125 -6.503906 4.363281 -5.9375 4.53125 -5.375 C 4.695312 -4.820312 4.988281 -4.332031 5.40625 -3.90625 C 5.820312 -3.488281 6.332031 -3.265625 6.9375 -3.234375 L 14.796875 -3.234375 C 15.796875 -3.140625 16.34375 -2.59375 16.4375 -1.59375 C 16.414062 -1.144531 16.242188 -0.773438 15.921875 -0.484375 C 15.609375 -0.191406 15.234375 -0.046875 14.796875 -0.046875 L 6.09375 -0.046875 C 4.988281 -0.109375 4.078125 -0.53125 3.359375 -1.3125 C 2.640625 -2.101562 2.125 -3 1.8125 -4 C 1.507812 -5 1.359375 -6.023438 1.359375 -7.078125 C 1.359375 -7.847656 1.441406 -8.613281 1.609375 -9.375 C 1.785156 -10.144531 2.0625 -10.875 2.4375 -11.5625 C 2.8125 -12.25 3.3125 -12.835938 3.9375 -13.328125 C 4.570312 -13.828125 5.289062 -14.082031 6.09375 -14.09375 L 14.796875 -14.09375 C 15.796875 -14 16.34375 -13.453125 16.4375 -12.453125 C 16.4375 -12.015625 16.269531 -11.644531 15.9375 -11.34375 C 15.613281 -11.050781 15.234375 -10.90625 14.796875 -10.90625 Z M 6.9375 -10.90625 "/></g></g></g><g fill="#00ffff" fill-opacity="1"><g transform="translate(23.580443, 23.442158)"><g><path d="M 4.71875 -1.265625 C 4.625 -0.304688 4.097656 0.207031 3.140625 0.28125 C 2.703125 0.28125 2.316406 0.132812 1.984375 -0.15625 C 1.660156 -0.445312 1.5 -0.816406 1.5 -1.265625 L 1.5 -12.546875 C 1.519531 -12.992188 1.6875 -13.363281 2 -13.65625 C 2.320312 -13.945312 2.703125 -14.09375 3.140625 -14.09375 L 13.125 -14.09375 C 13.21875 -14.09375 13.3125 -14.085938 13.40625 -14.078125 L 13.546875 -14.078125 C 14.660156 -14.046875 15.570312 -13.789062 16.28125 -13.3125 C 17 -12.832031 17.515625 -12.285156 17.828125 -11.671875 C 18.148438 -11.066406 18.3125 -10.457031 18.3125 -9.84375 C 18.3125 -9.207031 18.15625 -8.582031 17.84375 -7.96875 C 17.539062 -7.351562 17.023438 -6.804688 16.296875 -6.328125 C 15.578125 -5.859375 14.660156 -5.609375 13.546875 -5.578125 L 9.359375 -5.578125 C 9.484375 -4.773438 9.742188 -4.1875 10.140625 -3.8125 C 10.523438 -3.425781 11.007812 -3.234375 11.59375 -3.234375 L 16.75 -3.234375 C 17.1875 -3.222656 17.550781 -3.054688 17.84375 -2.734375 C 18.144531 -2.421875 18.296875 -2.039062 18.296875 -1.59375 C 18.273438 -1.164062 18.117188 -0.804688 17.828125 -0.515625 C 17.535156 -0.222656 17.175781 -0.0664062 16.75 -0.046875 L 11.171875 -0.046875 C 9.992188 -0.0351562 8.925781 -0.492188 7.96875 -1.421875 C 7.019531 -2.359375 6.441406 -3.472656 6.234375 -4.765625 C 5.953125 -6.191406 5.8125 -6.992188 5.8125 -7.171875 C 5.8125 -7.617188 5.960938 -7.992188 6.265625 -8.296875 C 6.578125 -8.609375 6.957031 -8.765625 7.40625 -8.765625 L 13.703125 -8.765625 C 14.003906 -8.785156 14.253906 -8.851562 14.453125 -8.96875 C 14.648438 -9.082031 14.796875 -9.210938 14.890625 -9.359375 C 14.984375 -9.515625 15.03125 -9.675781 15.03125 -9.84375 C 15.03125 -10 14.984375 -10.148438 14.890625 -10.296875 C 14.796875 -10.453125 14.648438 -10.585938 14.453125 -10.703125 C 14.253906 -10.828125 14.003906 -10.894531 13.703125 -10.90625 L 5.328125 -10.90625 C 4.921875 -10.894531 4.71875 -10.691406 4.71875 -10.296875 Z M 4.71875 -1.265625 "/></g></g></g><g fill="#00ffff" fill-opacity="1"><g transform="translate(42.966382, 23.442158)"><g><path d="M 5.9375 -14.09375 L 15.125 -14.09375 C 15.570312 -14.082031 15.941406 -13.914062 16.234375 -13.59375 C 16.523438 -13.28125 16.671875 -12.898438 16.671875 -12.453125 C 16.585938 -11.503906 16.070312 -10.988281 15.125 -10.90625 L 6.734375 -10.90625 C 6.128906 -10.875 5.628906 -10.644531 5.234375 -10.21875 C 4.835938 -9.789062 4.546875 -9.300781 4.359375 -8.75 C 4.179688 -8.207031 4.09375 -7.648438 4.09375 -7.078125 C 4.09375 -6.503906 4.179688 -5.941406 4.359375 -5.390625 C 4.546875 -4.847656 4.835938 -4.359375 5.234375 -3.921875 C 5.628906 -3.492188 6.128906 -3.265625 6.734375 -3.234375 L 15.125 -3.234375 C 15.570312 -3.222656 15.941406 -3.054688 16.234375 -2.734375 C 16.523438 -2.421875 16.671875 -2.039062 16.671875 -1.59375 C 16.660156 -1.164062 16.503906 -0.804688 16.203125 -0.515625 C 15.910156 -0.222656 15.550781 -0.0664062 15.125 -0.046875 L 5.9375 -0.046875 C 4.820312 -0.109375 3.898438 -0.53125 3.171875 -1.3125 C 2.453125 -2.101562 1.9375 -3 1.625 -4 C 1.320312 -5 1.171875 -6.023438 1.171875 -7.078125 C 1.171875 -8.117188 1.328125 -9.140625 1.640625 -10.140625 C 1.960938 -11.140625 2.476562 -12.03125 3.1875 -12.8125 C 3.90625 -13.601562 4.820312 -14.03125 5.9375 -14.09375 Z M 16.625 -7.171875 C 16.625 -6.722656 16.46875 -6.347656 16.15625 -6.046875 C 15.851562 -5.734375 15.476562 -5.578125 15.03125 -5.578125 L 7.84375 -5.578125 C 7.394531 -5.578125 7.015625 -5.726562 6.703125 -6.03125 C 6.390625 -6.34375 6.234375 -6.722656 6.234375 -7.171875 C 6.234375 -7.617188 6.382812 -8 6.6875 -8.3125 C 7.007812 -8.613281 7.394531 -8.765625 7.84375 -8.765625 L 15.03125 -8.765625 C 15.476562 -8.765625 15.851562 -8.609375 16.15625 -8.296875 C 16.46875 -7.992188 16.625 -7.617188 16.625 -7.171875 Z M 16.625 -7.171875 "/></g></g></g><g fill="#00ffff" fill-opacity="1"><g transform="translate(60.518517, 23.442158)"><g><path d="M 6.9375 -10.90625 C 6.332031 -10.875 5.828125 -10.644531 5.421875 -10.21875 C 5.015625 -9.789062 4.722656 -9.300781 4.546875 -8.75 C 4.367188 -8.207031 4.28125 -7.648438 4.28125 -7.078125 C 4.28125 -6.503906 4.363281 -5.9375 4.53125 -5.375 C 4.695312 -4.820312 4.988281 -4.332031 5.40625 -3.90625 C 5.820312 -3.488281 6.332031 -3.265625 6.9375 -3.234375 L 14.796875 -3.234375 C 15.796875 -3.140625 16.34375 -2.59375 16.4375 -1.59375 C 16.414062 -1.144531 16.242188 -0.773438 15.921875 -0.484375 C 15.609375 -0.191406 15.234375 -0.046875 14.796875 -0.046875 L 6.09375 -0.046875 C 4.988281 -0.109375 4.078125 -0.53125 3.359375 -1.3125 C 2.640625 -2.101562 2.125 -3 1.8125 -4 C 1.507812 -5 1.359375 -6.023438 1.359375 -7.078125 C 1.359375 -7.847656 1.441406 -8.613281 1.609375 -9.375 C 1.785156 -10.144531 2.0625 -10.875 2.4375 -11.5625 C 2.8125 -12.25 3.3125 -12.835938 3.9375 -13.328125 C 4.570312 -13.828125 5.289062 -14.082031 6.09375 -14.09375 L 14.796875 -14.09375 C 15.796875 -14 16.34375 -13.453125 16.4375 -12.453125 C 16.4375 -12.015625 16.269531 -11.644531 15.9375 -11.34375 C 15.613281 -11.050781 15.234375 -10.90625 14.796875 -10.90625 Z M 6.9375 -10.90625 "/></g></g></g><g fill="#000000" fill-opacity="1"><g transform="translate(24.270861, 22.993795)"><g><path d="M 4.71875 -1.265625 C 4.625 -0.304688 4.097656 0.207031 3.140625 0.28125 C 2.703125 0.28125 2.316406 0.132812 1.984375 -0.15625 C 1.660156 -0.445312 1.5 -0.816406 1.5 -1.265625 L 1.5 -12.546875 C 1.519531 -12.992188 1.6875 -13.363281 2 -13.65625 C 2.320312 -13.945312 2.703125 -14.09375 3.140625 -14.09375 L 13.125 -14.09375 C 13.21875 -14.09375 13.3125 -14.085938 13.40625 -14.078125 L 13.546875 -14.078125 C 14.660156 -14.046875 15.570312 -13.789062 16.28125 -13.3125 C 17 -12.832031 17.515625 -12.285156 17.828125 -11.671875 C 18.148438 -11.066406 18.3125 -10.457031 18.3125 -9.84375 C 18.3125 -9.207031 18.15625 -8.582031 17.84375 -7.96875 C 17.539062 -7.351562 17.023438 -6.804688 16.296875 -6.328125 C 15.578125 -5.859375 14.660156 -5.609375 13.546875 -5.578125 L 9.359375 -5.578125 C 9.484375 -4.773438 9.742188 -4.1875 10.140625 -3.8125 C 10.523438 -3.425781 11.007812 -3.234375 11.59375 -3.234375 L 16.75 -3.234375 C 17.1875 -3.222656 17.550781 -3.054688 17.84375 -2.734375 C 18.144531 -2.421875 18.296875 -2.039062 18.296875 -1.59375 C 18.273438 -1.164062 18.117188 -0.804688 17.828125 -0.515625 C 17.535156 -0.222656 17.175781 -0.0664062 16.75 -0.046875 L 11.171875 -0.046875 C 9.992188 -0.0351562 8.925781 -0.492188 7.96875 -1.421875 C 7.019531 -2.359375 6.441406 -3.472656 6.234375 -4.765625 C 5.953125 -6.191406 5.8125 -6.992188 5.8125 -7.171875 C 5.8125 -7.617188 5.960938 -7.992188 6.265625 -8.296875 C 6.578125 -8.609375 6.957031 -8.765625 7.40625 -8.765625 L 13.703125 -8.765625 C 14.003906 -8.785156 14.253906 -8.851562 14.453125 -8.96875 C 14.648438 -9.082031 14.796875 -9.210938 14.890625 -9.359375 C 14.984375 -9.515625 15.03125 -9.675781 15.03125 -9.84375 C 15.03125 -10 14.984375 -10.148438 14.890625 -10.296875 C 14.796875 -10.453125 14.648438 -10.585938 14.453125 -10.703125 C 14.253906 -10.828125 14.003906 -10.894531 13.703125 -10.90625 L 5.328125 -10.90625 C 4.921875 -10.894531 4.71875 -10.691406 4.71875 -10.296875 Z M 4.71875 -1.265625 "/></g></g></g><g fill="#000000" fill-opacity="1"><g transform="translate(43.656801, 22.993795)"><g><path d="M 5.9375 -14.09375 L 15.125 -14.09375 C 15.570312 -14.082031 15.941406 -13.914062 16.234375 -13.59375 C 16.523438 -13.28125 16.671875 -12.898438 16.671875 -12.453125 C 16.585938 -11.503906 16.070312 -10.988281 15.125 -10.90625 L 6.734375 -10.90625 C 6.128906 -10.875 5.628906 -10.644531 5.234375 -10.21875 C 4.835938 -9.789062 4.546875 -9.300781 4.359375 -8.75 C 4.179688 -8.207031 4.09375 -7.648438 4.09375 -7.078125 C 4.09375 -6.503906 4.179688 -5.941406 4.359375 -5.390625 C 4.546875 -4.847656 4.835938 -4.359375 5.234375 -3.921875 C 5.628906 -3.492188 6.128906 -3.265625 6.734375 -3.234375 L 15.125 -3.234375 C 15.570312 -3.222656 15.941406 -3.054688 16.234375 -2.734375 C 16.523438 -2.421875 16.671875 -2.039062 16.671875 -1.59375 C 16.660156 -1.164062 16.503906 -0.804688 16.203125 -0.515625 C 15.910156 -0.222656 15.550781 -0.0664062 15.125 -0.046875 L 5.9375 -0.046875 C 4.820312 -0.109375 3.898438 -0.53125 3.171875 -1.3125 C 2.453125 -2.101562 1.9375 -3 1.625 -4 C 1.320312 -5 1.171875 -6.023438 1.171875 -7.078125 C 1.171875 -8.117188 1.328125 -9.140625 1.640625 -10.140625 C 1.960938 -11.140625 2.476562 -12.03125 3.1875 -12.8125 C 3.90625 -13.601562 4.820312 -14.03125 5.9375 -14.09375 Z M 16.625 -7.171875 C 16.625 -6.722656 16.46875 -6.347656 16.15625 -6.046875 C 15.851562 -5.734375 15.476562 -5.578125 15.03125 -5.578125 L 7.84375 -5.578125 C 7.394531 -5.578125 7.015625 -5.726562 6.703125 -6.03125 C 6.390625 -6.34375 6.234375 -6.722656 6.234375 -7.171875 C 6.234375 -7.617188 6.382812 -8 6.6875 -8.3125 C 7.007812 -8.613281 7.394531 -8.765625 7.84375 -8.765625 L 15.03125 -8.765625 C 15.476562 -8.765625 15.851562 -8.609375 16.15625 -8.296875 C 16.46875 -7.992188 16.625 -7.617188 16.625 -7.171875 Z M 16.625 -7.171875 "/></g></g></g><g fill="#000000" fill-opacity="1"><g transform="translate(61.208935, 22.993795)"><g><path d="M 6.9375 -10.90625 C 6.332031 -10.875 5.828125 -10.644531 5.421875 -10.21875 C 5.015625 -9.789062 4.722656 -9.300781 4.546875 -8.75 C 4.367188 -8.207031 4.28125 -7.648438 4.28125 -7.078125 C 4.28125 -6.503906 4.363281 -5.9375 4.53125 -5.375 C 4.695312 -4.820312 4.988281 -4.332031 5.40625 -3.90625 C 5.820312 -3.488281 6.332031 -3.265625 6.9375 -3.234375 L 14.796875 -3.234375 C 15.796875 -3.140625 16.34375 -2.59375 16.4375 -1.59375 C 16.414062 -1.144531 16.242188 -0.773438 15.921875 -0.484375 C 15.609375 -0.191406 15.234375 -0.046875 14.796875 -0.046875 L 6.09375 -0.046875 C 4.988281 -0.109375 4.078125 -0.53125 3.359375 -1.3125 C 2.640625 -2.101562 2.125 -3 1.8125 -4 C 1.507812 -5 1.359375 -6.023438 1.359375 -7.078125 C 1.359375 -7.847656 1.441406 -8.613281 1.609375 -9.375 C 1.785156 -10.144531 2.0625 -10.875 2.4375 -11.5625 C 2.8125 -12.25 3.3125 -12.835938 3.9375 -13.328125 C 4.570312 -13.828125 5.289062 -14.082031 6.09375 -14.09375 L 14.796875 -14.09375 C 15.796875 -14 16.34375 -13.453125 16.4375 -12.453125 C 16.4375 -12.015625 16.269531 -11.644531 15.9375 -11.34375 C 15.613281 -11.050781 15.234375 -10.90625 14.796875 -10.90625 Z M 6.9375 -10.90625 "/></g></g></g><g fill="#ff00ff" fill-opacity="1"><g transform="translate(77.86176, 23.265305)"><g><path d="M 9.3125 -9.203125 C 9.84375 -9.191406 10.316406 -9.023438 10.734375 -8.703125 C 11.148438 -8.378906 11.484375 -7.992188 11.734375 -7.546875 C 11.984375 -7.097656 12.171875 -6.625 12.296875 -6.125 C 12.421875 -5.632812 12.484375 -5.128906 12.484375 -4.609375 C 12.484375 -3.929688 12.378906 -3.257812 12.171875 -2.59375 C 11.960938 -1.9375 11.613281 -1.351562 11.125 -0.84375 C 10.644531 -0.34375 10.039062 -0.0703125 9.3125 -0.03125 L 3.90625 -0.03125 C 3.175781 -0.0625 2.566406 -0.328125 2.078125 -0.828125 C 1.585938 -1.335938 1.242188 -1.925781 1.046875 -2.59375 C 0.847656 -3.257812 0.75 -3.929688 0.75 -4.609375 C 0.75 -5.296875 0.847656 -5.96875 1.046875 -6.625 C 1.253906 -7.28125 1.597656 -7.863281 2.078125 -8.375 C 2.566406 -8.894531 3.175781 -9.171875 3.90625 -9.203125 Z M 8.796875 -2.109375 C 9.179688 -2.128906 9.503906 -2.273438 9.765625 -2.546875 C 10.035156 -2.828125 10.226562 -3.144531 10.34375 -3.5 C 10.457031 -3.863281 10.515625 -4.234375 10.515625 -4.609375 C 10.515625 -4.984375 10.453125 -5.347656 10.328125 -5.703125 C 10.210938 -6.066406 10.023438 -6.382812 9.765625 -6.65625 C 9.503906 -6.9375 9.179688 -7.085938 8.796875 -7.109375 L 4.375 -7.109375 C 3.988281 -7.085938 3.664062 -6.9375 3.40625 -6.65625 C 3.144531 -6.382812 2.953125 -6.066406 2.828125 -5.703125 C 2.710938 -5.347656 2.65625 -4.984375 2.65625 -4.609375 C 2.65625 -4.234375 2.710938 -3.863281 2.828125 -3.5 C 2.941406 -3.144531 3.128906 -2.828125 3.390625 -2.546875 C 3.660156 -2.273438 3.988281 -2.128906 4.375 -2.109375 Z M 8.796875 -2.109375 "/></g></g></g><g fill="#00ffff" fill-opacity="1"><g transform="translate(78.813149, 22.861466)"><g><path d="M 9.3125 -9.203125 C 9.84375 -9.191406 10.316406 -9.023438 10.734375 -8.703125 C 11.148438 -8.378906 11.484375 -7.992188 11.734375 -7.546875 C 11.984375 -7.097656 12.171875 -6.625 12.296875 -6.125 C 12.421875 -5.632812 12.484375 -5.128906 12.484375 -4.609375 C 12.484375 -3.929688 12.378906 -3.257812 12.171875 -2.59375 C 11.960938 -1.9375 11.613281 -1.351562 11.125 -0.84375 C 10.644531 -0.34375 10.039062 -0.0703125 9.3125 -0.03125 L 3.90625 -0.03125 C 3.175781 -0.0625 2.566406 -0.328125 2.078125 -0.828125 C 1.585938 -1.335938 1.242188 -1.925781 1.046875 -2.59375 C 0.847656 -3.257812 0.75 -3.929688 0.75 -4.609375 C 0.75 -5.296875 0.847656 -5.96875 1.046875 -6.625 C 1.253906 -7.28125 1.597656 -7.863281 2.078125 -8.375 C 2.566406 -8.894531 3.175781 -9.171875 3.90625 -9.203125 Z M 8.796875 -2.109375 C 9.179688 -2.128906 9.503906 -2.273438 9.765625 -2.546875 C 10.035156 -2.828125 10.226562 -3.144531 10.34375 -3.5 C 10.457031 -3.863281 10.515625 -4.234375 10.515625 -4.609375 C 10.515625 -4.984375 10.453125 -5.347656 10.328125 -5.703125 C 10.210938 -6.066406 10.023438 -6.382812 9.765625 -6.65625 C 9.503906 -6.9375 9.179688 -7.085938 8.796875 -7.109375 L 4.375 -7.109375 C 3.988281 -7.085938 3.664062 -6.9375 3.40625 -6.65625 C 3.144531 -6.382812 2.953125 -6.066406 2.828125 -5.703125 C 2.710938 -5.347656 2.65625 -4.984375 2.65625 -4.609375 C 2.65625 -4.234375 2.710938 -3.863281 2.828125 -3.5 C 2.941406 -3.144531 3.128906 -2.828125 3.390625 -2.546875 C 3.660156 -2.273438 3.988281 -2.128906 4.375 -2.109375 Z M 8.796875 -2.109375 "/></g></g></g><g fill="#000000" fill-opacity="1"><g transform="translate(78.337454, 23.063385)"><g><path d="M 9.3125 -9.203125 C 9.84375 -9.191406 10.316406 -9.023438 10.734375 -8.703125 C 11.148438 -8.378906 11.484375 -7.992188 11.734375 -7.546875 C 11.984375 -7.097656 12.171875 -6.625 12.296875 -6.125 C 12.421875 -5.632812 12.484375 -5.128906 12.484375 -4.609375 C 12.484375 -3.929688 12.378906 -3.257812 12.171875 -2.59375 C 11.960938 -1.9375 11.613281 -1.351562 11.125 -0.84375 C 10.644531 -0.34375 10.039062 -0.0703125 9.3125 -0.03125 L 3.90625 -0.03125 C 3.175781 -0.0625 2.566406 -0.328125 2.078125 -0.828125 C 1.585938 -1.335938 1.242188 -1.925781 1.046875 -2.59375 C 0.847656 -3.257812 0.75 -3.929688 0.75 -4.609375 C 0.75 -5.296875 0.847656 -5.96875 1.046875 -6.625 C 1.253906 -7.28125 1.597656 -7.863281 2.078125 -8.375 C 2.566406 -8.894531 3.175781 -9.171875 3.90625 -9.203125 Z M 8.796875 -2.109375 C 9.179688 -2.128906 9.503906 -2.273438 9.765625 -2.546875 C 10.035156 -2.828125 10.226562 -3.144531 10.34375 -3.5 C 10.457031 -3.863281 10.515625 -4.234375 10.515625 -4.609375 C 10.515625 -4.984375 10.453125 -5.347656 10.328125 -5.703125 C 10.210938 -6.066406 10.023438 -6.382812 9.765625 -6.65625 C 9.503906 -6.9375 9.179688 -7.085938 8.796875 -7.109375 L 4.375 -7.109375 C 3.988281 -7.085938 3.664062 -6.9375 3.40625 -6.65625 C 3.144531 -6.382812 2.953125 -6.066406 2.828125 -5.703125 C 2.710938 -5.347656 2.65625 -4.984375 2.65625 -4.609375 C 2.65625 -4.234375 2.710938 -3.863281 2.828125 -3.5 C 2.941406 -3.144531 3.128906 -2.828125 3.390625 -2.546875 C 3.660156 -2.273438 3.988281 -2.128906 4.375 -2.109375 Z M 8.796875 -2.109375 "/></g></g></g></svg>