<svg xmlns="http://www.w3.org/2000/svg" xmlns:xlink="http://www.w3.org/1999/xlink" width="1080" zoomAndPan="magnify" viewBox="0 0 810 809.999993" height="1080" preserveAspectRatio="xMidYMid meet" version="1.0"><defs><g/><clipPath id="b498dab844"><path d="M 143.742188 199 L 534 199 L 534 376 L 143.742188 376 Z M 143.742188 199 " clip-rule="nonzero"/></clipPath><clipPath id="54cf7ee0d8"><path d="M 248 354 L 295 354 L 295 467.273438 L 248 467.273438 Z M 248 354 " clip-rule="nonzero"/></clipPath><clipPath id="9fb9f8c519"><path d="M 482 257 L 529 257 L 529 467.273438 L 482 467.273438 Z M 482 257 " clip-rule="nonzero"/></clipPath><clipPath id="0f13a4bd5d"><path d="M 326 318 L 373 318 L 373 467.273438 L 326 467.273438 Z M 326 318 " clip-rule="nonzero"/></clipPath><clipPath id="c3724c230f"><path d="M 404 282 L 451 282 L 451 467.273438 L 404 467.273438 Z M 404 282 " clip-rule="nonzero"/></clipPath><clipPath id="12f7540c54"><path d="M 482 192.773438 L 584.742188 192.773438 L 584.742188 288 L 482 288 Z M 482 192.773438 " clip-rule="nonzero"/></clipPath><clipPath id="f9a626bac0"><path d="M 51 326.675781 L 160 326.675781 L 160 629 L 51 629 Z M 51 326.675781 " clip-rule="nonzero"/></clipPath><clipPath id="7614567ece"><path d="M 600 110 L 787 110 L 787 630.625 L 600 630.625 Z M 600 110 " clip-rule="nonzero"/></clipPath></defs><rect x="-81" width="972" fill="#ffffff" y="-80.999999" height="971.999992" fill-opacity="1"/><rect x="-81" width="972" fill="#ffffff" y="-80.999999" height="971.999992" fill-opacity="1"/><rect x="-81" width="972" fill="#0b0a0a" y="-80.999999" height="971.999992" fill-opacity="1"/><g clip-path="url(#b498dab844)"><path fill="#545454" d="M 143.871094 331.585938 L 278.578125 270.25 L 260.859375 331.585938 L 519.003906 199.546875 L 533.488281 232.839844 L 227.933594 375.035156 L 256.757812 297.511719 L 143.871094 331.585938 " fill-opacity="1" fill-rule="nonzero"/></g><g clip-path="url(#54cf7ee0d8)"><path fill="#d9d9d9" d="M 248.398438 467.261719 L 294.050781 467.261719 L 294.050781 354.710938 L 248.398438 375.953125 L 248.398438 467.261719 " fill-opacity="1" fill-rule="nonzero"/></g><g clip-path="url(#9fb9f8c519)"><path fill="#545454" d="M 482.363281 300.179688 L 482.363281 467.261719 L 528.011719 467.261719 L 528.011719 257.984375 L 482.363281 300.179688 " fill-opacity="1" fill-rule="nonzero"/></g><g clip-path="url(#0f13a4bd5d)"><path fill="#a6a6a6" d="M 326.386719 467.261719 L 372.039062 467.261719 L 372.039062 318.417969 L 326.386719 339.660156 L 326.386719 467.261719 " fill-opacity="1" fill-rule="nonzero"/></g><g clip-path="url(#c3724c230f)"><path fill="#737373" d="M 404.371094 467.261719 L 450.027344 467.261719 L 450.027344 282.121094 L 404.371094 303.367188 L 404.371094 467.261719 " fill-opacity="1" fill-rule="nonzero"/></g><g clip-path="url(#12f7540c54)"><path fill="#545454" d="M 584.613281 192.78125 L 482.363281 192.78125 L 482.363281 287.289062 Z M 584.613281 192.78125 " fill-opacity="1" fill-rule="nonzero"/></g><g clip-path="url(#f9a626bac0)"><path fill="#d9d9d9" d="M 101.050781 354.808594 L 101.359375 354.769531 L 101.171875 354.59375 Z M 95.054688 604.390625 C 82.945312 602.953125 85.144531 603.023438 83.851562 603.695312 C 86.144531 605.425781 88.800781 604.917969 91.222656 605.285156 C 92.386719 605.460938 93.679688 605.683594 95.054688 604.390625 Z M 103.050781 616.078125 C 100.054688 615.0625 94.902344 616.03125 91.363281 616.03125 C 83.980469 616.03125 82.089844 614.734375 78.253906 615.84375 C 85.746094 618.398438 90.332031 617.253906 103.050781 616.078125 Z M 70.660156 619.328125 C 70.507812 619.589844 70.367188 619.847656 70.214844 620.105469 C 70.859375 620.484375 71.472656 621.003906 72.164062 621.226562 C 76.292969 622.59375 80.535156 623.371094 84.875 623.230469 C 99.066406 622.804688 119.027344 621.074219 135.242188 618.175781 C 135.804688 618.070312 136.464844 617.773438 136.148438 616.726562 C 114.84375 618.152344 91.328125 623.089844 75.808594 620.070312 C 74.105469 619.742188 72.378906 619.578125 70.660156 619.328125 Z M 80.523438 361.792969 C 79.925781 361.898438 79.265625 362.101562 79.574219 362.996094 C 79.691406 363.089844 79.832031 363.289062 79.925781 363.277344 C 102.769531 360.886719 104.273438 361.0625 106.589844 358.882812 L 106.929688 358.90625 C 89.484375 360.050781 89.15625 360.425781 80.523438 361.792969 Z M 110.632812 343.164062 C 114.667969 343.625 118.746094 343.390625 123.074219 343.683594 C 122.449219 346.875 123.917969 343.917969 116.785156 357.46875 C 113.785156 363.171875 104.402344 366 98.582031 366.589844 C 79.75 368.523438 79.621094 368.78125 78.195312 369.875 C 77.03125 378.03125 71.167969 542.46875 72.164062 566.261719 C 72.367188 571.078125 73.433594 575.746094 75.222656 580.257812 C 76.820312 584.289062 79.621094 586.914062 83.921875 587.632812 C 99.464844 590.226562 109.730469 588.175781 138.675781 584.996094 C 144.386719 584.382812 150.066406 583.664062 155.335938 581.058594 C 160.789062 583.511719 160.074219 584.121094 159.507812 588.058594 C 158.671875 593.960938 155.546875 598.6875 152.6875 603.613281 C 149.125 609.761719 149.269531 612.261719 145.90625 613.957031 C 146.667969 615.855469 146.457031 617.445312 145.433594 619.035156 C 142.367188 623.773438 135.839844 624.21875 91.058594 628.273438 C 68.074219 630.347656 58.914062 622.863281 54.285156 610.632812 C 50.746094 601.300781 51.519531 595.363281 51.886719 558.152344 C 51.980469 548.738281 56.257812 415.996094 58.269531 383.628906 C 58.445312 380.871094 59.703125 369.558594 61.480469 366.269531 C 65.59375 358.671875 63.816406 351.070312 67.839844 344.816406 C 69.625 342.035156 69.753906 333.964844 84.167969 330.441406 C 92.550781 328.390625 101.160156 327.554688 109.753906 327.023438 C 114.808594 326.703125 119.523438 328.152344 123.800781 330.980469 C 127.421875 333.363281 126.683594 335.742188 126.058594 338.464844 C 125.152344 342.46875 124.425781 343.128906 120.535156 342.539062 C 117.171875 342.023438 113.914062 342.339844 110.632812 343.164062 " fill-opacity="1" fill-rule="nonzero"/></g><g fill="#ff00ff" fill-opacity="1"><g transform="translate(234.676407, 550.323832)"><g><path d="M 3.8125 -45.40625 C 3.8125 -47.019531 4.367188 -48.390625 5.484375 -49.515625 C 6.609375 -50.640625 7.976562 -51.203125 9.59375 -51.203125 L 59.9375 -51.203125 C 61.550781 -51.203125 62.9375 -50.65625 64.09375 -49.5625 C 65.1875 -48.40625 65.734375 -47.019531 65.734375 -45.40625 C 65.734375 -43.789062 65.171875 -42.421875 64.046875 -41.296875 C 62.921875 -40.171875 61.550781 -39.609375 59.9375 -39.609375 L 40.65625 -39.609375 L 40.65625 -4.578125 C 40.300781 -1.117188 38.394531 0.75 34.9375 1.03125 C 33.320312 1.03125 31.921875 0.5 30.734375 -0.5625 C 29.554688 -1.625 28.96875 -2.960938 28.96875 -4.578125 L 28.96875 -39.609375 L 9.59375 -39.609375 C 7.976562 -39.609375 6.625 -40.1875 5.53125 -41.34375 C 4.382812 -42.4375 3.8125 -43.789062 3.8125 -45.40625 Z M 3.8125 -45.40625 "/></g></g></g><g fill="#00ffff" fill-opacity="1"><g transform="translate(229.66296, 553.5796)"><g><path d="M 3.8125 -45.40625 C 3.8125 -47.019531 4.367188 -48.390625 5.484375 -49.515625 C 6.609375 -50.640625 7.976562 -51.203125 9.59375 -51.203125 L 59.9375 -51.203125 C 61.550781 -51.203125 62.9375 -50.65625 64.09375 -49.5625 C 65.1875 -48.40625 65.734375 -47.019531 65.734375 -45.40625 C 65.734375 -43.789062 65.171875 -42.421875 64.046875 -41.296875 C 62.921875 -40.171875 61.550781 -39.609375 59.9375 -39.609375 L 40.65625 -39.609375 L 40.65625 -4.578125 C 40.300781 -1.117188 38.394531 0.75 34.9375 1.03125 C 33.320312 1.03125 31.921875 0.5 30.734375 -0.5625 C 29.554688 -1.625 28.96875 -2.960938 28.96875 -4.578125 L 28.96875 -39.609375 L 9.59375 -39.609375 C 7.976562 -39.609375 6.625 -40.1875 5.53125 -41.34375 C 4.382812 -42.4375 3.8125 -43.789062 3.8125 -45.40625 Z M 3.8125 -45.40625 "/></g></g></g><g fill="#545454" fill-opacity="1"><g transform="translate(232.169684, 551.951704)"><g><path d="M 3.8125 -45.40625 C 3.8125 -47.019531 4.367188 -48.390625 5.484375 -49.515625 C 6.609375 -50.640625 7.976562 -51.203125 9.59375 -51.203125 L 59.9375 -51.203125 C 61.550781 -51.203125 62.9375 -50.65625 64.09375 -49.5625 C 65.1875 -48.40625 65.734375 -47.019531 65.734375 -45.40625 C 65.734375 -43.789062 65.171875 -42.421875 64.046875 -41.296875 C 62.921875 -40.171875 61.550781 -39.609375 59.9375 -39.609375 L 40.65625 -39.609375 L 40.65625 -4.578125 C 40.300781 -1.117188 38.394531 0.75 34.9375 1.03125 C 33.320312 1.03125 31.921875 0.5 30.734375 -0.5625 C 29.554688 -1.625 28.96875 -2.960938 28.96875 -4.578125 L 28.96875 -39.609375 L 9.59375 -39.609375 C 7.976562 -39.609375 6.625 -40.1875 5.53125 -41.34375 C 4.382812 -42.4375 3.8125 -43.789062 3.8125 -45.40625 Z M 3.8125 -45.40625 "/></g></g></g><g fill="#ff00ff" fill-opacity="1"><g transform="translate(304.027966, 550.323832)"><g><path d="M 17.125 -4.578125 C 16.78125 -1.117188 14.878906 0.75 11.421875 1.03125 C 9.804688 1.03125 8.40625 0.5 7.21875 -0.5625 C 6.039062 -1.625 5.453125 -2.960938 5.453125 -4.578125 L 5.453125 -45.578125 C 5.503906 -47.191406 6.109375 -48.53125 7.265625 -49.59375 C 8.421875 -50.664062 9.804688 -51.203125 11.421875 -51.203125 L 47.65625 -51.203125 C 48 -51.203125 48.34375 -51.171875 48.6875 -51.109375 L 49.21875 -51.109375 C 53.25 -50.992188 56.5625 -50.070312 59.15625 -48.34375 C 61.75 -46.613281 63.625 -44.640625 64.78125 -42.421875 C 65.9375 -40.203125 66.515625 -37.96875 66.515625 -35.71875 C 66.515625 -33.414062 65.953125 -31.148438 64.828125 -28.921875 C 63.703125 -26.703125 61.828125 -24.726562 59.203125 -23 C 56.578125 -21.269531 53.25 -20.347656 49.21875 -20.234375 L 33.984375 -20.234375 C 34.453125 -17.347656 35.40625 -15.21875 36.84375 -13.84375 C 38.226562 -12.457031 39.988281 -11.765625 42.125 -11.765625 L 60.796875 -11.765625 C 62.410156 -11.703125 63.75 -11.09375 64.8125 -9.9375 C 65.882812 -8.789062 66.421875 -7.410156 66.421875 -5.796875 C 66.359375 -4.234375 65.796875 -2.921875 64.734375 -1.859375 C 63.671875 -0.796875 62.359375 -0.234375 60.796875 -0.171875 L 40.5625 -0.171875 C 36.289062 -0.117188 32.425781 -1.789062 28.96875 -5.1875 C 25.507812 -8.59375 23.40625 -12.628906 22.65625 -17.296875 C 21.625 -22.484375 21.109375 -25.394531 21.109375 -26.03125 C 21.109375 -27.644531 21.664062 -29.015625 22.78125 -30.140625 C 23.90625 -31.265625 25.273438 -31.828125 26.890625 -31.828125 L 49.734375 -31.828125 C 50.828125 -31.878906 51.734375 -32.125 52.453125 -32.5625 C 53.171875 -33 53.703125 -33.488281 54.046875 -34.03125 C 54.398438 -34.582031 54.578125 -35.144531 54.578125 -35.71875 C 54.578125 -36.289062 54.398438 -36.851562 54.046875 -37.40625 C 53.703125 -37.957031 53.171875 -38.445312 52.453125 -38.875 C 51.734375 -39.3125 50.828125 -39.554688 49.734375 -39.609375 L 19.375 -39.609375 C 17.875 -39.554688 17.125 -38.804688 17.125 -37.359375 Z M 17.125 -4.578125 "/></g></g></g><g fill="#ff00ff" fill-opacity="1"><g transform="translate(374.425126, 550.323832)"><g><path d="M 21.53125 -51.203125 L 54.921875 -51.203125 C 56.535156 -51.140625 57.875 -50.53125 58.9375 -49.375 C 60.007812 -48.226562 60.546875 -46.847656 60.546875 -45.234375 C 60.253906 -41.773438 58.378906 -39.898438 54.921875 -39.609375 L 24.46875 -39.609375 C 22.28125 -39.492188 20.460938 -38.65625 19.015625 -37.09375 C 17.578125 -35.539062 16.523438 -33.769531 15.859375 -31.78125 C 15.203125 -29.789062 14.875 -27.757812 14.875 -25.6875 C 14.875 -23.613281 15.203125 -21.582031 15.859375 -19.59375 C 16.523438 -17.601562 17.578125 -15.828125 19.015625 -14.265625 C 20.460938 -12.710938 22.28125 -11.878906 24.46875 -11.765625 L 54.921875 -11.765625 C 56.535156 -11.703125 57.875 -11.09375 58.9375 -9.9375 C 60.007812 -8.789062 60.546875 -7.410156 60.546875 -5.796875 C 60.484375 -4.234375 59.914062 -2.921875 58.84375 -1.859375 C 57.78125 -0.796875 56.472656 -0.234375 54.921875 -0.171875 L 21.53125 -0.171875 C 17.5 -0.398438 14.171875 -1.941406 11.546875 -4.796875 C 8.921875 -7.648438 7.046875 -10.894531 5.921875 -14.53125 C 4.796875 -18.164062 4.234375 -21.882812 4.234375 -25.6875 C 4.234375 -29.488281 4.8125 -33.207031 5.96875 -36.84375 C 7.125 -40.476562 9 -43.722656 11.59375 -46.578125 C 14.1875 -49.429688 17.5 -50.972656 21.53125 -51.203125 Z M 60.375 -26.03125 C 60.375 -24.414062 59.796875 -23.0625 58.640625 -21.96875 C 57.546875 -20.8125 56.191406 -20.234375 54.578125 -20.234375 L 28.453125 -20.234375 C 26.835938 -20.234375 25.46875 -20.796875 24.34375 -21.921875 C 23.21875 -23.046875 22.65625 -24.414062 22.65625 -26.03125 C 22.65625 -27.644531 23.203125 -29.03125 24.296875 -30.1875 C 25.453125 -31.28125 26.835938 -31.828125 28.453125 -31.828125 L 54.578125 -31.828125 C 56.191406 -31.828125 57.5625 -31.265625 58.6875 -30.140625 C 59.8125 -29.015625 60.375 -27.644531 60.375 -26.03125 Z M 60.375 -26.03125 "/></g></g></g><g fill="#ff00ff" fill-opacity="1"><g transform="translate(438.163095, 550.323832)"><g><path d="M 25.171875 -39.609375 C 22.972656 -39.492188 21.140625 -38.65625 19.671875 -37.09375 C 18.203125 -35.539062 17.148438 -33.769531 16.515625 -31.78125 C 15.878906 -29.789062 15.5625 -27.757812 15.5625 -25.6875 C 15.5625 -23.613281 15.863281 -21.566406 16.46875 -19.546875 C 17.082031 -17.523438 18.132812 -15.75 19.625 -14.21875 C 21.125 -12.695312 22.972656 -11.878906 25.171875 -11.765625 L 53.703125 -11.765625 C 57.335938 -11.421875 59.328125 -9.429688 59.671875 -5.796875 C 59.617188 -4.179688 59.015625 -2.835938 57.859375 -1.765625 C 56.703125 -0.703125 55.316406 -0.171875 53.703125 -0.171875 L 22.140625 -0.171875 C 18.109375 -0.398438 14.789062 -1.941406 12.1875 -4.796875 C 9.59375 -7.648438 7.734375 -10.894531 6.609375 -14.53125 C 5.492188 -18.164062 4.9375 -21.882812 4.9375 -25.6875 C 4.9375 -28.507812 5.25 -31.304688 5.875 -34.078125 C 6.507812 -36.847656 7.503906 -39.484375 8.859375 -41.984375 C 10.210938 -44.492188 12.03125 -46.640625 14.3125 -48.421875 C 16.59375 -50.210938 19.203125 -51.140625 22.140625 -51.203125 L 53.703125 -51.203125 C 57.335938 -50.859375 59.328125 -48.867188 59.671875 -45.234375 C 59.671875 -43.617188 59.078125 -42.273438 57.890625 -41.203125 C 56.710938 -40.140625 55.316406 -39.609375 53.703125 -39.609375 Z M 25.171875 -39.609375 "/></g></g></g><g fill="#00ffff" fill-opacity="1"><g transform="translate(299.014519, 553.5796)"><g><path d="M 17.125 -4.578125 C 16.78125 -1.117188 14.878906 0.75 11.421875 1.03125 C 9.804688 1.03125 8.40625 0.5 7.21875 -0.5625 C 6.039062 -1.625 5.453125 -2.960938 5.453125 -4.578125 L 5.453125 -45.578125 C 5.503906 -47.191406 6.109375 -48.53125 7.265625 -49.59375 C 8.421875 -50.664062 9.804688 -51.203125 11.421875 -51.203125 L 47.65625 -51.203125 C 48 -51.203125 48.34375 -51.171875 48.6875 -51.109375 L 49.21875 -51.109375 C 53.25 -50.992188 56.5625 -50.070312 59.15625 -48.34375 C 61.75 -46.613281 63.625 -44.640625 64.78125 -42.421875 C 65.9375 -40.203125 66.515625 -37.96875 66.515625 -35.71875 C 66.515625 -33.414062 65.953125 -31.148438 64.828125 -28.921875 C 63.703125 -26.703125 61.828125 -24.726562 59.203125 -23 C 56.578125 -21.269531 53.25 -20.347656 49.21875 -20.234375 L 33.984375 -20.234375 C 34.453125 -17.347656 35.40625 -15.21875 36.84375 -13.84375 C 38.226562 -12.457031 39.988281 -11.765625 42.125 -11.765625 L 60.796875 -11.765625 C 62.410156 -11.703125 63.75 -11.09375 64.8125 -9.9375 C 65.882812 -8.789062 66.421875 -7.410156 66.421875 -5.796875 C 66.359375 -4.234375 65.796875 -2.921875 64.734375 -1.859375 C 63.671875 -0.796875 62.359375 -0.234375 60.796875 -0.171875 L 40.5625 -0.171875 C 36.289062 -0.117188 32.425781 -1.789062 28.96875 -5.1875 C 25.507812 -8.59375 23.40625 -12.628906 22.65625 -17.296875 C 21.625 -22.484375 21.109375 -25.394531 21.109375 -26.03125 C 21.109375 -27.644531 21.664062 -29.015625 22.78125 -30.140625 C 23.90625 -31.265625 25.273438 -31.828125 26.890625 -31.828125 L 49.734375 -31.828125 C 50.828125 -31.878906 51.734375 -32.125 52.453125 -32.5625 C 53.171875 -33 53.703125 -33.488281 54.046875 -34.03125 C 54.398438 -34.582031 54.578125 -35.144531 54.578125 -35.71875 C 54.578125 -36.289062 54.398438 -36.851562 54.046875 -37.40625 C 53.703125 -37.957031 53.171875 -38.445312 52.453125 -38.875 C 51.734375 -39.3125 50.828125 -39.554688 49.734375 -39.609375 L 19.375 -39.609375 C 17.875 -39.554688 17.125 -38.804688 17.125 -37.359375 Z M 17.125 -4.578125 "/></g></g></g><g fill="#00ffff" fill-opacity="1"><g transform="translate(369.411679, 553.5796)"><g><path d="M 21.53125 -51.203125 L 54.921875 -51.203125 C 56.535156 -51.140625 57.875 -50.53125 58.9375 -49.375 C 60.007812 -48.226562 60.546875 -46.847656 60.546875 -45.234375 C 60.253906 -41.773438 58.378906 -39.898438 54.921875 -39.609375 L 24.46875 -39.609375 C 22.28125 -39.492188 20.460938 -38.65625 19.015625 -37.09375 C 17.578125 -35.539062 16.523438 -33.769531 15.859375 -31.78125 C 15.203125 -29.789062 14.875 -27.757812 14.875 -25.6875 C 14.875 -23.613281 15.203125 -21.582031 15.859375 -19.59375 C 16.523438 -17.601562 17.578125 -15.828125 19.015625 -14.265625 C 20.460938 -12.710938 22.28125 -11.878906 24.46875 -11.765625 L 54.921875 -11.765625 C 56.535156 -11.703125 57.875 -11.09375 58.9375 -9.9375 C 60.007812 -8.789062 60.546875 -7.410156 60.546875 -5.796875 C 60.484375 -4.234375 59.914062 -2.921875 58.84375 -1.859375 C 57.78125 -0.796875 56.472656 -0.234375 54.921875 -0.171875 L 21.53125 -0.171875 C 17.5 -0.398438 14.171875 -1.941406 11.546875 -4.796875 C 8.921875 -7.648438 7.046875 -10.894531 5.921875 -14.53125 C 4.796875 -18.164062 4.234375 -21.882812 4.234375 -25.6875 C 4.234375 -29.488281 4.8125 -33.207031 5.96875 -36.84375 C 7.125 -40.476562 9 -43.722656 11.59375 -46.578125 C 14.1875 -49.429688 17.5 -50.972656 21.53125 -51.203125 Z M 60.375 -26.03125 C 60.375 -24.414062 59.796875 -23.0625 58.640625 -21.96875 C 57.546875 -20.8125 56.191406 -20.234375 54.578125 -20.234375 L 28.453125 -20.234375 C 26.835938 -20.234375 25.46875 -20.796875 24.34375 -21.921875 C 23.21875 -23.046875 22.65625 -24.414062 22.65625 -26.03125 C 22.65625 -27.644531 23.203125 -29.03125 24.296875 -30.1875 C 25.453125 -31.28125 26.835938 -31.828125 28.453125 -31.828125 L 54.578125 -31.828125 C 56.191406 -31.828125 57.5625 -31.265625 58.6875 -30.140625 C 59.8125 -29.015625 60.375 -27.644531 60.375 -26.03125 Z M 60.375 -26.03125 "/></g></g></g><g fill="#00ffff" fill-opacity="1"><g transform="translate(433.149648, 553.5796)"><g><path d="M 25.171875 -39.609375 C 22.972656 -39.492188 21.140625 -38.65625 19.671875 -37.09375 C 18.203125 -35.539062 17.148438 -33.769531 16.515625 -31.78125 C 15.878906 -29.789062 15.5625 -27.757812 15.5625 -25.6875 C 15.5625 -23.613281 15.863281 -21.566406 16.46875 -19.546875 C 17.082031 -17.523438 18.132812 -15.75 19.625 -14.21875 C 21.125 -12.695312 22.972656 -11.878906 25.171875 -11.765625 L 53.703125 -11.765625 C 57.335938 -11.421875 59.328125 -9.429688 59.671875 -5.796875 C 59.617188 -4.179688 59.015625 -2.835938 57.859375 -1.765625 C 56.703125 -0.703125 55.316406 -0.171875 53.703125 -0.171875 L 22.140625 -0.171875 C 18.109375 -0.398438 14.789062 -1.941406 12.1875 -4.796875 C 9.59375 -7.648438 7.734375 -10.894531 6.609375 -14.53125 C 5.492188 -18.164062 4.9375 -21.882812 4.9375 -25.6875 C 4.9375 -28.507812 5.25 -31.304688 5.875 -34.078125 C 6.507812 -36.847656 7.503906 -39.484375 8.859375 -41.984375 C 10.210938 -44.492188 12.03125 -46.640625 14.3125 -48.421875 C 16.59375 -50.210938 19.203125 -51.140625 22.140625 -51.203125 L 53.703125 -51.203125 C 57.335938 -50.859375 59.328125 -48.867188 59.671875 -45.234375 C 59.671875 -43.617188 59.078125 -42.273438 57.890625 -41.203125 C 56.710938 -40.140625 55.316406 -39.609375 53.703125 -39.609375 Z M 25.171875 -39.609375 "/></g></g></g><g fill="#ffffff" fill-opacity="1"><g transform="translate(301.521243, 551.951704)"><g><path d="M 17.125 -4.578125 C 16.78125 -1.117188 14.878906 0.75 11.421875 1.03125 C 9.804688 1.03125 8.40625 0.5 7.21875 -0.5625 C 6.039062 -1.625 5.453125 -2.960938 5.453125 -4.578125 L 5.453125 -45.578125 C 5.503906 -47.191406 6.109375 -48.53125 7.265625 -49.59375 C 8.421875 -50.664062 9.804688 -51.203125 11.421875 -51.203125 L 47.65625 -51.203125 C 48 -51.203125 48.34375 -51.171875 48.6875 -51.109375 L 49.21875 -51.109375 C 53.25 -50.992188 56.5625 -50.070312 59.15625 -48.34375 C 61.75 -46.613281 63.625 -44.640625 64.78125 -42.421875 C 65.9375 -40.203125 66.515625 -37.96875 66.515625 -35.71875 C 66.515625 -33.414062 65.953125 -31.148438 64.828125 -28.921875 C 63.703125 -26.703125 61.828125 -24.726562 59.203125 -23 C 56.578125 -21.269531 53.25 -20.347656 49.21875 -20.234375 L 33.984375 -20.234375 C 34.453125 -17.347656 35.40625 -15.21875 36.84375 -13.84375 C 38.226562 -12.457031 39.988281 -11.765625 42.125 -11.765625 L 60.796875 -11.765625 C 62.410156 -11.703125 63.75 -11.09375 64.8125 -9.9375 C 65.882812 -8.789062 66.421875 -7.410156 66.421875 -5.796875 C 66.359375 -4.234375 65.796875 -2.921875 64.734375 -1.859375 C 63.671875 -0.796875 62.359375 -0.234375 60.796875 -0.171875 L 40.5625 -0.171875 C 36.289062 -0.117188 32.425781 -1.789062 28.96875 -5.1875 C 25.507812 -8.59375 23.40625 -12.628906 22.65625 -17.296875 C 21.625 -22.484375 21.109375 -25.394531 21.109375 -26.03125 C 21.109375 -27.644531 21.664062 -29.015625 22.78125 -30.140625 C 23.90625 -31.265625 25.273438 -31.828125 26.890625 -31.828125 L 49.734375 -31.828125 C 50.828125 -31.878906 51.734375 -32.125 52.453125 -32.5625 C 53.171875 -33 53.703125 -33.488281 54.046875 -34.03125 C 54.398438 -34.582031 54.578125 -35.144531 54.578125 -35.71875 C 54.578125 -36.289062 54.398438 -36.851562 54.046875 -37.40625 C 53.703125 -37.957031 53.171875 -38.445312 52.453125 -38.875 C 51.734375 -39.3125 50.828125 -39.554688 49.734375 -39.609375 L 19.375 -39.609375 C 17.875 -39.554688 17.125 -38.804688 17.125 -37.359375 Z M 17.125 -4.578125 "/></g></g></g><g fill="#ffffff" fill-opacity="1"><g transform="translate(371.918403, 551.951704)"><g><path d="M 21.53125 -51.203125 L 54.921875 -51.203125 C 56.535156 -51.140625 57.875 -50.53125 58.9375 -49.375 C 60.007812 -48.226562 60.546875 -46.847656 60.546875 -45.234375 C 60.253906 -41.773438 58.378906 -39.898438 54.921875 -39.609375 L 24.46875 -39.609375 C 22.28125 -39.492188 20.460938 -38.65625 19.015625 -37.09375 C 17.578125 -35.539062 16.523438 -33.769531 15.859375 -31.78125 C 15.203125 -29.789062 14.875 -27.757812 14.875 -25.6875 C 14.875 -23.613281 15.203125 -21.582031 15.859375 -19.59375 C 16.523438 -17.601562 17.578125 -15.828125 19.015625 -14.265625 C 20.460938 -12.710938 22.28125 -11.878906 24.46875 -11.765625 L 54.921875 -11.765625 C 56.535156 -11.703125 57.875 -11.09375 58.9375 -9.9375 C 60.007812 -8.789062 60.546875 -7.410156 60.546875 -5.796875 C 60.484375 -4.234375 59.914062 -2.921875 58.84375 -1.859375 C 57.78125 -0.796875 56.472656 -0.234375 54.921875 -0.171875 L 21.53125 -0.171875 C 17.5 -0.398438 14.171875 -1.941406 11.546875 -4.796875 C 8.921875 -7.648438 7.046875 -10.894531 5.921875 -14.53125 C 4.796875 -18.164062 4.234375 -21.882812 4.234375 -25.6875 C 4.234375 -29.488281 4.8125 -33.207031 5.96875 -36.84375 C 7.125 -40.476562 9 -43.722656 11.59375 -46.578125 C 14.1875 -49.429688 17.5 -50.972656 21.53125 -51.203125 Z M 60.375 -26.03125 C 60.375 -24.414062 59.796875 -23.0625 58.640625 -21.96875 C 57.546875 -20.8125 56.191406 -20.234375 54.578125 -20.234375 L 28.453125 -20.234375 C 26.835938 -20.234375 25.46875 -20.796875 24.34375 -21.921875 C 23.21875 -23.046875 22.65625 -24.414062 22.65625 -26.03125 C 22.65625 -27.644531 23.203125 -29.03125 24.296875 -30.1875 C 25.453125 -31.28125 26.835938 -31.828125 28.453125 -31.828125 L 54.578125 -31.828125 C 56.191406 -31.828125 57.5625 -31.265625 58.6875 -30.140625 C 59.8125 -29.015625 60.375 -27.644531 60.375 -26.03125 Z M 60.375 -26.03125 "/></g></g></g><g fill="#ffffff" fill-opacity="1"><g transform="translate(435.656372, 551.951704)"><g><path d="M 25.171875 -39.609375 C 22.972656 -39.492188 21.140625 -38.65625 19.671875 -37.09375 C 18.203125 -35.539062 17.148438 -33.769531 16.515625 -31.78125 C 15.878906 -29.789062 15.5625 -27.757812 15.5625 -25.6875 C 15.5625 -23.613281 15.863281 -21.566406 16.46875 -19.546875 C 17.082031 -17.523438 18.132812 -15.75 19.625 -14.21875 C 21.125 -12.695312 22.972656 -11.878906 25.171875 -11.765625 L 53.703125 -11.765625 C 57.335938 -11.421875 59.328125 -9.429688 59.671875 -5.796875 C 59.617188 -4.179688 59.015625 -2.835938 57.859375 -1.765625 C 56.703125 -0.703125 55.316406 -0.171875 53.703125 -0.171875 L 22.140625 -0.171875 C 18.109375 -0.398438 14.789062 -1.941406 12.1875 -4.796875 C 9.59375 -7.648438 7.734375 -10.894531 6.609375 -14.53125 C 5.492188 -18.164062 4.9375 -21.882812 4.9375 -25.6875 C 4.9375 -28.507812 5.25 -31.304688 5.875 -34.078125 C 6.507812 -36.847656 7.503906 -39.484375 8.859375 -41.984375 C 10.210938 -44.492188 12.03125 -46.640625 14.3125 -48.421875 C 16.59375 -50.210938 19.203125 -51.140625 22.140625 -51.203125 L 53.703125 -51.203125 C 57.335938 -50.859375 59.328125 -48.867188 59.671875 -45.234375 C 59.671875 -43.617188 59.078125 -42.273438 57.890625 -41.203125 C 56.710938 -40.140625 55.316406 -39.609375 53.703125 -39.609375 Z M 25.171875 -39.609375 "/></g></g></g><g fill="#a6a6a6" fill-opacity="1"><g transform="translate(211.594581, 624.562141)"><g><path d="M 9.011719 1.121094 C 14.007812 1.121094 16.535156 -2.273438 16.535156 -5.613281 C 16.535156 -8.421875 14.765625 -11.199219 11.230469 -11.929688 C 13.445312 -12.6875 14.683594 -14.625 14.683594 -16.535156 C 14.683594 -18.976562 12.660156 -21.417969 8.113281 -21.417969 L 2.359375 -21.417969 L 2.359375 1.121094 Z M 4.15625 -12.238281 L 4.15625 -20.269531 L 7.804688 -20.269531 C 11.230469 -20.269531 12.800781 -18.332031 12.800781 -16.367188 C 12.800781 -14.316406 11.089844 -12.238281 7.972656 -12.238281 Z M 4.15625 0.0273438 L 4.15625 -11.117188 L 8.675781 -11.117188 C 12.660156 -11.117188 14.597656 -8.449219 14.597656 -5.699219 C 14.597656 -2.863281 12.492188 0.0273438 8.394531 0.0273438 Z M 4.15625 0.0273438 "/></g></g></g><g fill="#a6a6a6" fill-opacity="1"><g transform="translate(231.326273, 624.562141)"><g><path d="M 13.558594 1.121094 L 13.558594 -0.0859375 L 4.15625 -0.0859375 L 4.15625 -11.199219 L 11.199219 -11.199219 L 11.199219 -12.40625 L 4.15625 -12.40625 L 4.15625 -20.183594 L 13.558594 -20.183594 L 13.558594 -21.390625 L 2.359375 -21.390625 L 2.359375 1.121094 Z M 13.558594 1.121094 "/></g></g></g><g fill="#a6a6a6" fill-opacity="1"><g transform="translate(247.802247, 624.562141)"><g><path d="M 0.898438 0.253906 C 2.328125 1.09375 4.042969 1.515625 5.726562 1.515625 C 11.230469 1.515625 13.277344 -2.582031 13.277344 -5.304688 C 13.277344 -9.375 9.964844 -11.257812 7.550781 -12.519531 C 4.6875 -14.035156 3.058594 -14.992188 3.058594 -17.207031 C 3.058594 -18.976562 4.492188 -20.6875 7.4375 -20.6875 C 8.730469 -20.6875 10.105469 -20.351562 11.199219 -19.847656 L 11.480469 -21 C 10.414062 -21.503906 8.925781 -21.839844 7.410156 -21.839844 C 3.59375 -21.839844 1.375 -19.707031 1.375 -16.984375 C 1.375 -15.410156 2.160156 -13.8125 3.734375 -12.746094 C 4.6875 -12.097656 5.613281 -11.648438 6.539062 -11.144531 C 8.644531 -9.992188 11.453125 -8.394531 11.453125 -5.195312 C 11.453125 -2.359375 9.292969 0.167969 5.472656 0.167969 C 4.015625 0.167969 2.46875 -0.195312 1.152344 -0.953125 Z M 0.898438 0.253906 "/></g></g></g><g fill="#a6a6a6" fill-opacity="1"><g transform="translate(264.165967, 624.562141)"><g><path d="M 4.238281 1.121094 L 4.238281 -21.390625 L 2.5 -21.390625 L 2.5 1.121094 Z M 4.238281 1.121094 "/></g></g></g><g fill="#a6a6a6" fill-opacity="1"><g transform="translate(272.895606, 624.562141)"><g><path d="M 10.5 1.152344 C 18.835938 1.152344 23.105469 -4.574219 23.105469 -10.246094 C 23.105469 -15.859375 18.976562 -21.390625 10.554688 -21.390625 C 10.472656 -21.390625 10.414062 -21.390625 10.332031 -21.390625 C 10.332031 -21.390625 10.332031 -21.390625 2.328125 -21.390625 L 2.328125 1.152344 Z M 4.183594 -0.0546875 L 4.183594 -20.183594 L 10.246094 -20.183594 C 17.628906 -20.183594 21.167969 -15.300781 21.167969 -10.332031 C 21.167969 -5.222656 17.433594 -0.0546875 10.300781 -0.0546875 Z M 4.183594 -0.0546875 "/></g></g></g><g fill="#a6a6a6" fill-opacity="1"><g transform="translate(299.279037, 624.562141)"><g><path d="M 13.558594 1.121094 L 13.558594 -0.0859375 L 4.15625 -0.0859375 L 4.15625 -11.199219 L 11.199219 -11.199219 L 11.199219 -12.40625 L 4.15625 -12.40625 L 4.15625 -20.183594 L 13.558594 -20.183594 L 13.558594 -21.390625 L 2.359375 -21.390625 L 2.359375 1.121094 Z M 13.558594 1.121094 "/></g></g></g><g fill="#a6a6a6" fill-opacity="1"><g transform="translate(315.755015, 624.562141)"><g/></g></g><g fill="#a6a6a6" fill-opacity="1"><g transform="translate(326.196707, 624.562141)"><g><path d="M 9.574219 1.152344 L 9.542969 -10.976562 L 17.375 -21.390625 L 15.75 -21.390625 L 8.984375 -12.210938 L 2.328125 -21.390625 L 0.335938 -21.390625 L 7.832031 -10.921875 L 7.832031 1.152344 Z M 9.574219 1.152344 "/></g></g></g><g fill="#a6a6a6" fill-opacity="1"><g transform="translate(345.956464, 624.562141)"><g><path d="M 25.292969 -10.132812 C 25.292969 -17.910156 19.566406 -21.867188 13.277344 -21.867188 C 6.988281 -21.867188 1.292969 -17.910156 1.292969 -10.132812 C 1.292969 -2.359375 6.988281 1.628906 13.277344 1.628906 C 19.566406 1.628906 25.292969 -2.359375 25.292969 -10.132812 Z M 13.277344 0.476562 C 8.058594 0.476562 3.285156 -3.089844 3.285156 -10.164062 C 3.285156 -17.238281 8.058594 -20.773438 13.277344 -20.773438 C 18.5 -20.773438 23.300781 -17.238281 23.300781 -10.164062 C 23.300781 -3.089844 18.5 0.476562 13.277344 0.476562 Z M 13.277344 0.476562 "/></g></g></g><g fill="#a6a6a6" fill-opacity="1"><g transform="translate(374.557159, 624.562141)"><g><path d="M 18.359375 -7.550781 C 18.359375 -2.414062 14.824219 0.140625 11.257812 0.140625 C 7.664062 0.140625 4.042969 -2.46875 4.042969 -7.550781 L 4.042969 -21.390625 L 2.246094 -21.390625 L 2.246094 -7.242188 C 2.246094 -1.402344 6.652344 1.570312 11.0625 1.570312 C 15.410156 1.570312 19.761719 -1.347656 19.761719 -7.242188 L 19.761719 -21.390625 L 18.359375 -21.390625 Z M 18.359375 -7.550781 "/></g></g></g><g fill="#a6a6a6" fill-opacity="1"><g transform="translate(398.554949, 624.562141)"><g><path d="M 19.539062 0.449219 C 15.804688 -0.8125 14.007812 -7.019531 13.222656 -9.964844 C 12.71875 -10.441406 11.59375 -11.0625 10.273438 -11.398438 C 13.222656 -11.621094 14.960938 -14.035156 14.960938 -16.449219 C 14.960938 -18.949219 13.082031 -21.417969 8.703125 -21.417969 L 8.675781 -21.417969 C 8.675781 -21.417969 4.546875 -21.390625 2.359375 -21.390625 L 2.359375 1.152344 L 4.097656 1.152344 L 4.097656 -11.199219 L 6.878906 -11.199219 C 8.140625 -11.199219 10.386719 -10.667969 11.339844 -9.601562 C 12.464844 -5.753906 14.234375 0.195312 19.089844 1.347656 Z M 4.097656 -12.296875 L 4.097656 -20.296875 L 8.394531 -20.296875 C 11.59375 -20.296875 13.082031 -18.386719 13.082031 -16.421875 C 13.082031 -14.402344 11.453125 -12.296875 8.535156 -12.296875 Z M 4.097656 -12.296875 "/></g></g></g><g fill="#a6a6a6" fill-opacity="1"><g transform="translate(419.577687, 624.562141)"><g/></g></g><g fill="#a6a6a6" fill-opacity="1"><g transform="translate(430.019368, 624.562141)"><g><path d="M 17.714844 1.121094 L 26.277344 -21.417969 L 24.898438 -21.417969 L 17.347656 -1.402344 L 14.261719 -10.359375 L 18.136719 -21.417969 L 16.757812 -21.417969 L 13.585938 -12.296875 L 10.441406 -21.390625 L 8.617188 -21.417969 L 12.746094 -9.824219 L 9.851562 -1.488281 L 2.328125 -21.390625 L 0.476562 -21.417969 L 9.152344 1.121094 L 10.246094 1.121094 L 13.417969 -7.945312 L 16.648438 1.121094 Z M 17.714844 1.121094 "/></g></g></g><g fill="#a6a6a6" fill-opacity="1"><g transform="translate(458.844584, 624.562141)"><g><path d="M 25.292969 -10.132812 C 25.292969 -17.910156 19.566406 -21.867188 13.277344 -21.867188 C 6.988281 -21.867188 1.292969 -17.910156 1.292969 -10.132812 C 1.292969 -2.359375 6.988281 1.628906 13.277344 1.628906 C 19.566406 1.628906 25.292969 -2.359375 25.292969 -10.132812 Z M 13.277344 0.476562 C 8.058594 0.476562 3.285156 -3.089844 3.285156 -10.164062 C 3.285156 -17.238281 8.058594 -20.773438 13.277344 -20.773438 C 18.5 -20.773438 23.300781 -17.238281 23.300781 -10.164062 C 23.300781 -3.089844 18.5 0.476562 13.277344 0.476562 Z M 13.277344 0.476562 "/></g></g></g><g fill="#a6a6a6" fill-opacity="1"><g transform="translate(487.445268, 624.562141)"><g><path d="M 19.539062 0.449219 C 15.804688 -0.8125 14.007812 -7.019531 13.222656 -9.964844 C 12.71875 -10.441406 11.59375 -11.0625 10.273438 -11.398438 C 13.222656 -11.621094 14.960938 -14.035156 14.960938 -16.449219 C 14.960938 -18.949219 13.082031 -21.417969 8.703125 -21.417969 L 8.675781 -21.417969 C 8.675781 -21.417969 4.546875 -21.390625 2.359375 -21.390625 L 2.359375 1.152344 L 4.097656 1.152344 L 4.097656 -11.199219 L 6.878906 -11.199219 C 8.140625 -11.199219 10.386719 -10.667969 11.339844 -9.601562 C 12.464844 -5.753906 14.234375 0.195312 19.089844 1.347656 Z M 4.097656 -12.296875 L 4.097656 -20.296875 L 8.394531 -20.296875 C 11.59375 -20.296875 13.082031 -18.386719 13.082031 -16.421875 C 13.082031 -14.402344 11.453125 -12.296875 8.535156 -12.296875 Z M 4.097656 -12.296875 "/></g></g></g><g fill="#a6a6a6" fill-opacity="1"><g transform="translate(508.468017, 624.562141)"><g><path d="M 18.695312 1.121094 L 6.34375 -13.027344 L 18.136719 -21.417969 L 15.859375 -21.390625 L 4.296875 -13.054688 C 4.296875 -13.054688 12.71875 -3.089844 16.085938 1.121094 Z M 3.957031 1.121094 L 3.957031 -21.390625 L 2.21875 -21.390625 L 2.21875 1.121094 Z M 3.957031 1.121094 "/></g></g></g><g fill="#a6a6a6" fill-opacity="1"><g transform="translate(529.57495, 624.562141)"><g><path d="M 25.292969 -10.132812 C 25.292969 -17.910156 19.566406 -21.867188 13.277344 -21.867188 C 6.988281 -21.867188 1.292969 -17.910156 1.292969 -10.132812 C 1.292969 -2.359375 6.988281 1.628906 13.277344 1.628906 C 19.566406 1.628906 25.292969 -2.359375 25.292969 -10.132812 Z M 13.277344 0.476562 C 8.058594 0.476562 3.285156 -3.089844 3.285156 -10.164062 C 3.285156 -17.238281 8.058594 -20.773438 13.277344 -20.773438 C 18.5 -20.773438 23.300781 -17.238281 23.300781 -10.164062 C 23.300781 -3.089844 18.5 0.476562 13.277344 0.476562 Z M 13.277344 0.476562 "/></g></g></g><g fill="#a6a6a6" fill-opacity="1"><g transform="translate(558.175634, 624.562141)"><g><path d="M 18.359375 -7.550781 C 18.359375 -2.414062 14.824219 0.140625 11.257812 0.140625 C 7.664062 0.140625 4.042969 -2.46875 4.042969 -7.550781 L 4.042969 -21.390625 L 2.246094 -21.390625 L 2.246094 -7.242188 C 2.246094 -1.402344 6.652344 1.570312 11.0625 1.570312 C 15.410156 1.570312 19.761719 -1.347656 19.761719 -7.242188 L 19.761719 -21.390625 L 18.359375 -21.390625 Z M 18.359375 -7.550781 "/></g></g></g><g fill="#a6a6a6" fill-opacity="1"><g transform="translate(582.173412, 624.562141)"><g><path d="M 9.207031 1.121094 L 9.207031 -20.183594 L 15.664062 -20.183594 L 15.664062 -21.417969 L 0.953125 -21.417969 L 0.953125 -20.183594 L 7.382812 -20.183594 L 7.382812 1.121094 Z M 9.207031 1.121094 "/></g></g></g><g clip-path="url(#7614567ece)"><path fill="#545454" d="M 701.40625 582.207031 L 700.878906 582.269531 L 701.203125 582.574219 Z M 711.738281 152.679688 C 732.601562 155.152344 728.8125 155.03125 731.039062 153.875 C 727.089844 150.894531 722.511719 151.769531 718.339844 151.140625 C 716.335938 150.835938 714.105469 150.449219 711.738281 152.679688 Z M 697.964844 132.5625 C 703.128906 134.308594 712 132.644531 718.097656 132.644531 C 730.816406 132.644531 734.078125 134.875 740.683594 132.96875 C 727.78125 128.570312 719.878906 130.535156 697.964844 132.5625 Z M 753.769531 126.96875 C 754.03125 126.523438 754.273438 126.074219 754.539062 125.628906 C 753.421875 124.980469 752.371094 124.089844 751.175781 123.703125 C 744.066406 121.351562 736.753906 120.011719 729.277344 120.253906 C 704.828125 120.984375 670.4375 123.964844 642.503906 128.953125 C 641.53125 129.136719 640.394531 129.644531 640.941406 131.449219 C 677.648438 128.996094 718.160156 120.5 744.894531 125.691406 C 747.832031 126.257812 750.8125 126.542969 753.769531 126.96875 Z M 736.773438 570.183594 C 737.804688 570 738.941406 569.65625 738.414062 568.113281 C 738.210938 567.953125 737.96875 567.609375 737.804688 567.628906 C 698.449219 571.746094 695.855469 571.441406 691.867188 575.191406 L 691.277344 575.152344 C 721.339844 573.183594 721.90625 572.535156 736.773438 570.183594 Z M 684.898438 602.242188 C 677.949219 601.453125 670.921875 601.859375 663.46875 601.351562 C 664.542969 595.855469 662.007812 600.945312 674.304688 577.625 C 679.46875 567.8125 695.632812 562.945312 705.660156 561.929688 C 738.109375 558.605469 738.332031 558.160156 740.785156 556.273438 C 742.789062 542.242188 752.898438 259.242188 751.175781 218.300781 C 750.832031 210.007812 748.988281 201.976562 745.910156 194.210938 C 743.152344 187.273438 738.332031 182.753906 730.917969 181.515625 C 704.140625 177.054688 686.457031 180.582031 636.589844 186.058594 C 626.742188 187.113281 616.960938 188.347656 607.886719 192.832031 C 598.488281 188.613281 599.722656 187.558594 600.695312 180.785156 C 602.132812 170.625 607.519531 162.496094 612.441406 154.019531 C 618.582031 143.433594 618.335938 139.132812 624.128906 136.214844 C 622.8125 132.949219 623.179688 130.210938 624.941406 127.476562 C 630.226562 119.324219 641.46875 118.550781 718.625 111.578125 C 758.222656 108.007812 774.003906 120.882812 781.984375 141.933594 C 788.082031 157.992188 786.746094 168.214844 786.117188 232.25 C 785.953125 248.453125 778.582031 476.90625 775.117188 532.609375 C 774.8125 537.351562 772.644531 556.820312 769.585938 562.476562 C 762.5 575.558594 765.558594 588.636719 758.628906 599.402344 C 755.550781 604.191406 755.328125 618.078125 730.492188 624.144531 C 716.050781 627.671875 701.222656 629.109375 686.417969 630.023438 C 677.707031 630.570312 669.585938 628.078125 662.210938 623.210938 C 655.972656 619.113281 657.25 615.019531 658.324219 610.332031 C 659.882812 603.4375 661.136719 602.304688 667.84375 603.316406 C 673.636719 604.210938 679.246094 603.664062 684.898438 602.242188 " fill-opacity="1" fill-rule="nonzero"/></g><g fill="#ff00ff" fill-opacity="1"><g transform="translate(501.215413, 554.111685)"><g><path d="M 35.4375 -34.953125 C 37.4375 -34.921875 39.222656 -34.289062 40.796875 -33.0625 C 42.378906 -31.84375 43.648438 -30.382812 44.609375 -28.6875 C 45.578125 -27 46.296875 -25.207031 46.765625 -23.3125 C 47.242188 -21.425781 47.484375 -19.5 47.484375 -17.53125 C 47.484375 -14.9375 47.078125 -12.390625 46.265625 -9.890625 C 45.460938 -7.390625 44.144531 -5.175781 42.3125 -3.25 C 40.476562 -1.320312 38.1875 -0.28125 35.4375 -0.125 L 14.828125 -0.125 C 12.066406 -0.238281 9.757812 -1.257812 7.90625 -3.1875 C 6.0625 -5.113281 4.753906 -7.335938 3.984375 -9.859375 C 3.210938 -12.378906 2.828125 -14.9375 2.828125 -17.53125 C 2.828125 -20.132812 3.222656 -22.6875 4.015625 -25.1875 C 4.804688 -27.6875 6.113281 -29.910156 7.9375 -31.859375 C 9.769531 -33.804688 12.066406 -34.835938 14.828125 -34.953125 Z M 33.421875 -8.03125 C 34.921875 -8.113281 36.171875 -8.675781 37.171875 -9.71875 C 38.171875 -10.757812 38.890625 -11.96875 39.328125 -13.34375 C 39.765625 -14.71875 39.984375 -16.113281 39.984375 -17.53125 C 39.984375 -18.957031 39.753906 -20.347656 39.296875 -21.703125 C 38.847656 -23.054688 38.128906 -24.265625 37.140625 -25.328125 C 36.160156 -26.390625 34.921875 -26.960938 33.421875 -27.046875 L 16.65625 -27.046875 C 15.15625 -26.960938 13.910156 -26.390625 12.921875 -25.328125 C 11.941406 -24.265625 11.222656 -23.054688 10.765625 -21.703125 C 10.316406 -20.347656 10.09375 -18.957031 10.09375 -17.53125 C 10.09375 -16.113281 10.304688 -14.71875 10.734375 -13.34375 C 11.171875 -11.96875 11.890625 -10.757812 12.890625 -9.71875 C 13.898438 -8.675781 15.15625 -8.113281 16.65625 -8.03125 Z M 33.421875 -8.03125 "/></g></g></g><g fill="#00ffff" fill-opacity="1"><g transform="translate(504.834085, 552.575661)"><g><path d="M 35.4375 -34.953125 C 37.4375 -34.921875 39.222656 -34.289062 40.796875 -33.0625 C 42.378906 -31.84375 43.648438 -30.382812 44.609375 -28.6875 C 45.578125 -27 46.296875 -25.207031 46.765625 -23.3125 C 47.242188 -21.425781 47.484375 -19.5 47.484375 -17.53125 C 47.484375 -14.9375 47.078125 -12.390625 46.265625 -9.890625 C 45.460938 -7.390625 44.144531 -5.175781 42.3125 -3.25 C 40.476562 -1.320312 38.1875 -0.28125 35.4375 -0.125 L 14.828125 -0.125 C 12.066406 -0.238281 9.757812 -1.257812 7.90625 -3.1875 C 6.0625 -5.113281 4.753906 -7.335938 3.984375 -9.859375 C 3.210938 -12.378906 2.828125 -14.9375 2.828125 -17.53125 C 2.828125 -20.132812 3.222656 -22.6875 4.015625 -25.1875 C 4.804688 -27.6875 6.113281 -29.910156 7.9375 -31.859375 C 9.769531 -33.804688 12.066406 -34.835938 14.828125 -34.953125 Z M 33.421875 -8.03125 C 34.921875 -8.113281 36.171875 -8.675781 37.171875 -9.71875 C 38.171875 -10.757812 38.890625 -11.96875 39.328125 -13.34375 C 39.765625 -14.71875 39.984375 -16.113281 39.984375 -17.53125 C 39.984375 -18.957031 39.753906 -20.347656 39.296875 -21.703125 C 38.847656 -23.054688 38.128906 -24.265625 37.140625 -25.328125 C 36.160156 -26.390625 34.921875 -26.960938 33.421875 -27.046875 L 16.65625 -27.046875 C 15.15625 -26.960938 13.910156 -26.390625 12.921875 -25.328125 C 11.941406 -24.265625 11.222656 -23.054688 10.765625 -21.703125 C 10.316406 -20.347656 10.09375 -18.957031 10.09375 -17.53125 C 10.09375 -16.113281 10.304688 -14.71875 10.734375 -13.34375 C 11.171875 -11.96875 11.890625 -10.757812 12.890625 -9.71875 C 13.898438 -8.675781 15.15625 -8.113281 16.65625 -8.03125 Z M 33.421875 -8.03125 "/></g></g></g><g fill="#ffffff" fill-opacity="1"><g transform="translate(503.024749, 553.343661)"><g><path d="M 35.4375 -34.953125 C 37.4375 -34.921875 39.222656 -34.289062 40.796875 -33.0625 C 42.378906 -31.84375 43.648438 -30.382812 44.609375 -28.6875 C 45.578125 -27 46.296875 -25.207031 46.765625 -23.3125 C 47.242188 -21.425781 47.484375 -19.5 47.484375 -17.53125 C 47.484375 -14.9375 47.078125 -12.390625 46.265625 -9.890625 C 45.460938 -7.390625 44.144531 -5.175781 42.3125 -3.25 C 40.476562 -1.320312 38.1875 -0.28125 35.4375 -0.125 L 14.828125 -0.125 C 12.066406 -0.238281 9.757812 -1.257812 7.90625 -3.1875 C 6.0625 -5.113281 4.753906 -7.335938 3.984375 -9.859375 C 3.210938 -12.378906 2.828125 -14.9375 2.828125 -17.53125 C 2.828125 -20.132812 3.222656 -22.6875 4.015625 -25.1875 C 4.804688 -27.6875 6.113281 -29.910156 7.9375 -31.859375 C 9.769531 -33.804688 12.066406 -34.835938 14.828125 -34.953125 Z M 33.421875 -8.03125 C 34.921875 -8.113281 36.171875 -8.675781 37.171875 -9.71875 C 38.171875 -10.757812 38.890625 -11.96875 39.328125 -13.34375 C 39.765625 -14.71875 39.984375 -16.113281 39.984375 -17.53125 C 39.984375 -18.957031 39.753906 -20.347656 39.296875 -21.703125 C 38.847656 -23.054688 38.128906 -24.265625 37.140625 -25.328125 C 36.160156 -26.390625 34.921875 -26.960938 33.421875 -27.046875 L 16.65625 -27.046875 C 15.15625 -26.960938 13.910156 -26.390625 12.921875 -25.328125 C 11.941406 -24.265625 11.222656 -23.054688 10.765625 -21.703125 C 10.316406 -20.347656 10.09375 -18.957031 10.09375 -17.53125 C 10.09375 -16.113281 10.304688 -14.71875 10.734375 -13.34375 C 11.171875 -11.96875 11.890625 -10.757812 12.890625 -9.71875 C 13.898438 -8.675781 15.15625 -8.113281 16.65625 -8.03125 Z M 33.421875 -8.03125 "/></g></g></g></svg>